<mxfile host="app.diagrams.net" agent="Mozilla/5.0 (Windows NT 10.0; Win64; x64) AppleWebKit/537.36 (KHTML, like Gecko) Chrome/132.0.0.0 Safari/537.36 Edg/132.0.0.0" version="26.0.11" pages="2">
  <diagram name="part_a" id="N0rKh6pHOOfdO_1uBOMi">
    <mxGraphModel dx="982" dy="523" grid="1" gridSize="10" guides="1" tooltips="1" connect="1" arrows="1" fold="1" page="1" pageScale="1" pageWidth="850" pageHeight="1100" math="1" shadow="0">
      <root>
        <mxCell id="0" />
        <mxCell id="1" parent="0" />
        <mxCell id="HRCa3_O8-2l-VFVqgWmT-139" value="" style="group" parent="1" vertex="1" connectable="0">
          <mxGeometry x="42" y="40" width="340" height="300" as="geometry" />
        </mxCell>
        <mxCell id="HRCa3_O8-2l-VFVqgWmT-137" value="" style="group" parent="HRCa3_O8-2l-VFVqgWmT-139" vertex="1" connectable="0">
          <mxGeometry width="320" height="300" as="geometry" />
        </mxCell>
        <mxCell id="HRCa3_O8-2l-VFVqgWmT-112" value="" style="group" parent="HRCa3_O8-2l-VFVqgWmT-137" vertex="1" connectable="0">
          <mxGeometry width="201.35000000000002" height="300" as="geometry" />
        </mxCell>
        <mxCell id="HRCa3_O8-2l-VFVqgWmT-97" value="" style="group" parent="HRCa3_O8-2l-VFVqgWmT-112" vertex="1" connectable="0">
          <mxGeometry x="20" y="20" width="161.3452405076555" height="240" as="geometry" />
        </mxCell>
        <mxCell id="HRCa3_O8-2l-VFVqgWmT-32" value="" style="group" parent="HRCa3_O8-2l-VFVqgWmT-97" vertex="1" connectable="0">
          <mxGeometry y="10" width="50" height="40" as="geometry" />
        </mxCell>
        <mxCell id="HRCa3_O8-2l-VFVqgWmT-17" value="" style="group" parent="HRCa3_O8-2l-VFVqgWmT-32" vertex="1" connectable="0">
          <mxGeometry x="10" width="40" height="40" as="geometry" />
        </mxCell>
        <mxCell id="HRCa3_O8-2l-VFVqgWmT-9" value="" style="endArrow=none;html=1;rounded=0;" parent="HRCa3_O8-2l-VFVqgWmT-17" edge="1">
          <mxGeometry width="50" height="50" relative="1" as="geometry">
            <mxPoint x="20" y="40" as="sourcePoint" />
            <mxPoint x="20" as="targetPoint" />
          </mxGeometry>
        </mxCell>
        <mxCell id="HRCa3_O8-2l-VFVqgWmT-10" value="" style="endArrow=none;html=1;rounded=0;" parent="HRCa3_O8-2l-VFVqgWmT-17" edge="1">
          <mxGeometry width="50" height="50" relative="1" as="geometry">
            <mxPoint x="10" y="40" as="sourcePoint" />
            <mxPoint x="10" as="targetPoint" />
          </mxGeometry>
        </mxCell>
        <mxCell id="HRCa3_O8-2l-VFVqgWmT-12" value="" style="ellipse;whiteSpace=wrap;html=1;aspect=fixed;" parent="HRCa3_O8-2l-VFVqgWmT-17" vertex="1">
          <mxGeometry y="15" width="10" height="10" as="geometry" />
        </mxCell>
        <mxCell id="HRCa3_O8-2l-VFVqgWmT-15" value="" style="endArrow=none;html=1;rounded=0;" parent="HRCa3_O8-2l-VFVqgWmT-17" edge="1">
          <mxGeometry width="50" height="50" relative="1" as="geometry">
            <mxPoint x="40" as="sourcePoint" />
            <mxPoint x="20" as="targetPoint" />
          </mxGeometry>
        </mxCell>
        <mxCell id="HRCa3_O8-2l-VFVqgWmT-16" value="" style="endArrow=none;html=1;rounded=0;" parent="HRCa3_O8-2l-VFVqgWmT-17" edge="1">
          <mxGeometry width="50" height="50" relative="1" as="geometry">
            <mxPoint x="20" y="40" as="sourcePoint" />
            <mxPoint x="40" y="40" as="targetPoint" />
          </mxGeometry>
        </mxCell>
        <mxCell id="HRCa3_O8-2l-VFVqgWmT-29" value="" style="endArrow=none;html=1;rounded=0;" parent="HRCa3_O8-2l-VFVqgWmT-32" edge="1">
          <mxGeometry width="50" height="50" relative="1" as="geometry">
            <mxPoint y="20" as="sourcePoint" />
            <mxPoint x="10" y="19.920000000000016" as="targetPoint" />
          </mxGeometry>
        </mxCell>
        <mxCell id="HRCa3_O8-2l-VFVqgWmT-63" value="" style="group" parent="HRCa3_O8-2l-VFVqgWmT-97" vertex="1" connectable="0">
          <mxGeometry y="120" width="161.3452405076555" height="120" as="geometry" />
        </mxCell>
        <mxCell id="HRCa3_O8-2l-VFVqgWmT-31" value="" style="group" parent="HRCa3_O8-2l-VFVqgWmT-63" vertex="1" connectable="0">
          <mxGeometry y="10" width="50" height="40" as="geometry" />
        </mxCell>
        <mxCell id="HRCa3_O8-2l-VFVqgWmT-28" value="" style="endArrow=none;html=1;rounded=0;" parent="HRCa3_O8-2l-VFVqgWmT-31" edge="1">
          <mxGeometry width="50" height="50" relative="1" as="geometry">
            <mxPoint y="20" as="sourcePoint" />
            <mxPoint x="10" y="20" as="targetPoint" />
            <Array as="points">
              <mxPoint x="20" y="20" />
            </Array>
          </mxGeometry>
        </mxCell>
        <mxCell id="HRCa3_O8-2l-VFVqgWmT-30" value="" style="group" parent="HRCa3_O8-2l-VFVqgWmT-31" vertex="1" connectable="0">
          <mxGeometry x="21" width="29" height="40" as="geometry" />
        </mxCell>
        <mxCell id="HRCa3_O8-2l-VFVqgWmT-24" value="" style="endArrow=none;html=1;rounded=0;" parent="HRCa3_O8-2l-VFVqgWmT-30" edge="1">
          <mxGeometry width="50" height="50" relative="1" as="geometry">
            <mxPoint x="9" as="sourcePoint" />
            <mxPoint x="9" y="40" as="targetPoint" />
          </mxGeometry>
        </mxCell>
        <mxCell id="HRCa3_O8-2l-VFVqgWmT-25" value="" style="endArrow=none;html=1;rounded=0;" parent="HRCa3_O8-2l-VFVqgWmT-30" edge="1">
          <mxGeometry width="50" height="50" relative="1" as="geometry">
            <mxPoint as="sourcePoint" />
            <mxPoint y="40" as="targetPoint" />
          </mxGeometry>
        </mxCell>
        <mxCell id="HRCa3_O8-2l-VFVqgWmT-26" value="" style="endArrow=none;html=1;rounded=0;" parent="HRCa3_O8-2l-VFVqgWmT-30" edge="1">
          <mxGeometry width="50" height="50" relative="1" as="geometry">
            <mxPoint x="9" as="sourcePoint" />
            <mxPoint x="29" as="targetPoint" />
          </mxGeometry>
        </mxCell>
        <mxCell id="HRCa3_O8-2l-VFVqgWmT-27" value="" style="endArrow=none;html=1;rounded=0;" parent="HRCa3_O8-2l-VFVqgWmT-30" edge="1">
          <mxGeometry width="50" height="50" relative="1" as="geometry">
            <mxPoint x="9" y="40" as="sourcePoint" />
            <mxPoint x="29" y="40" as="targetPoint" />
          </mxGeometry>
        </mxCell>
        <mxCell id="HRCa3_O8-2l-VFVqgWmT-33" value="" style="group;rotation=-181;" parent="HRCa3_O8-2l-VFVqgWmT-63" vertex="1" connectable="0">
          <mxGeometry x="111" y="10" width="50" height="40" as="geometry" />
        </mxCell>
        <mxCell id="HRCa3_O8-2l-VFVqgWmT-34" value="" style="endArrow=none;html=1;rounded=0;" parent="HRCa3_O8-2l-VFVqgWmT-33" edge="1">
          <mxGeometry width="50" height="50" relative="1" as="geometry">
            <mxPoint x="50" y="20" as="sourcePoint" />
            <mxPoint x="40" y="20" as="targetPoint" />
            <Array as="points">
              <mxPoint x="30" y="20" />
            </Array>
          </mxGeometry>
        </mxCell>
        <mxCell id="HRCa3_O8-2l-VFVqgWmT-35" value="" style="group;rotation=-181;" parent="HRCa3_O8-2l-VFVqgWmT-33" vertex="1" connectable="0">
          <mxGeometry width="29" height="40" as="geometry" />
        </mxCell>
        <mxCell id="HRCa3_O8-2l-VFVqgWmT-36" value="" style="endArrow=none;html=1;rounded=0;" parent="HRCa3_O8-2l-VFVqgWmT-35" edge="1">
          <mxGeometry width="50" height="50" relative="1" as="geometry">
            <mxPoint x="20" y="40" as="sourcePoint" />
            <mxPoint x="20" as="targetPoint" />
          </mxGeometry>
        </mxCell>
        <mxCell id="HRCa3_O8-2l-VFVqgWmT-37" value="" style="endArrow=none;html=1;rounded=0;" parent="HRCa3_O8-2l-VFVqgWmT-35" edge="1">
          <mxGeometry width="50" height="50" relative="1" as="geometry">
            <mxPoint x="29" y="40" as="sourcePoint" />
            <mxPoint x="29" as="targetPoint" />
          </mxGeometry>
        </mxCell>
        <mxCell id="HRCa3_O8-2l-VFVqgWmT-38" value="" style="endArrow=none;html=1;rounded=0;" parent="HRCa3_O8-2l-VFVqgWmT-35" edge="1">
          <mxGeometry width="50" height="50" relative="1" as="geometry">
            <mxPoint x="20" y="40" as="sourcePoint" />
            <mxPoint y="40" as="targetPoint" />
          </mxGeometry>
        </mxCell>
        <mxCell id="HRCa3_O8-2l-VFVqgWmT-39" value="" style="endArrow=none;html=1;rounded=0;" parent="HRCa3_O8-2l-VFVqgWmT-35" edge="1">
          <mxGeometry width="50" height="50" relative="1" as="geometry">
            <mxPoint x="20" as="sourcePoint" />
            <mxPoint as="targetPoint" />
          </mxGeometry>
        </mxCell>
        <mxCell id="HRCa3_O8-2l-VFVqgWmT-40" value="" style="group" parent="HRCa3_O8-2l-VFVqgWmT-63" vertex="1" connectable="0">
          <mxGeometry y="70" width="50" height="40" as="geometry" />
        </mxCell>
        <mxCell id="HRCa3_O8-2l-VFVqgWmT-41" value="" style="endArrow=none;html=1;rounded=0;" parent="HRCa3_O8-2l-VFVqgWmT-40" edge="1">
          <mxGeometry width="50" height="50" relative="1" as="geometry">
            <mxPoint y="20" as="sourcePoint" />
            <mxPoint x="10" y="20" as="targetPoint" />
            <Array as="points">
              <mxPoint x="20" y="20" />
            </Array>
          </mxGeometry>
        </mxCell>
        <mxCell id="HRCa3_O8-2l-VFVqgWmT-42" value="" style="group" parent="HRCa3_O8-2l-VFVqgWmT-40" vertex="1" connectable="0">
          <mxGeometry x="21" width="29" height="40" as="geometry" />
        </mxCell>
        <mxCell id="HRCa3_O8-2l-VFVqgWmT-43" value="" style="endArrow=none;html=1;rounded=0;" parent="HRCa3_O8-2l-VFVqgWmT-42" edge="1">
          <mxGeometry width="50" height="50" relative="1" as="geometry">
            <mxPoint x="9" as="sourcePoint" />
            <mxPoint x="9" y="40" as="targetPoint" />
          </mxGeometry>
        </mxCell>
        <mxCell id="HRCa3_O8-2l-VFVqgWmT-44" value="" style="endArrow=none;html=1;rounded=0;" parent="HRCa3_O8-2l-VFVqgWmT-42" edge="1">
          <mxGeometry width="50" height="50" relative="1" as="geometry">
            <mxPoint as="sourcePoint" />
            <mxPoint y="40" as="targetPoint" />
          </mxGeometry>
        </mxCell>
        <mxCell id="HRCa3_O8-2l-VFVqgWmT-45" value="" style="endArrow=none;html=1;rounded=0;" parent="HRCa3_O8-2l-VFVqgWmT-42" edge="1">
          <mxGeometry width="50" height="50" relative="1" as="geometry">
            <mxPoint x="9" as="sourcePoint" />
            <mxPoint x="29" as="targetPoint" />
          </mxGeometry>
        </mxCell>
        <mxCell id="HRCa3_O8-2l-VFVqgWmT-46" value="" style="endArrow=none;html=1;rounded=0;" parent="HRCa3_O8-2l-VFVqgWmT-42" edge="1">
          <mxGeometry width="50" height="50" relative="1" as="geometry">
            <mxPoint x="9" y="40" as="sourcePoint" />
            <mxPoint x="29" y="40" as="targetPoint" />
          </mxGeometry>
        </mxCell>
        <mxCell id="HRCa3_O8-2l-VFVqgWmT-47" value="" style="group;rotation=-181;" parent="HRCa3_O8-2l-VFVqgWmT-63" vertex="1" connectable="0">
          <mxGeometry x="111" y="70" width="50" height="40" as="geometry" />
        </mxCell>
        <mxCell id="HRCa3_O8-2l-VFVqgWmT-48" value="" style="endArrow=none;html=1;rounded=0;" parent="HRCa3_O8-2l-VFVqgWmT-47" edge="1">
          <mxGeometry width="50" height="50" relative="1" as="geometry">
            <mxPoint x="50" y="20" as="sourcePoint" />
            <mxPoint x="40" y="20" as="targetPoint" />
            <Array as="points">
              <mxPoint x="30" y="20" />
            </Array>
          </mxGeometry>
        </mxCell>
        <mxCell id="HRCa3_O8-2l-VFVqgWmT-49" value="" style="group;rotation=-181;" parent="HRCa3_O8-2l-VFVqgWmT-47" vertex="1" connectable="0">
          <mxGeometry width="29" height="40" as="geometry" />
        </mxCell>
        <mxCell id="HRCa3_O8-2l-VFVqgWmT-50" value="" style="endArrow=none;html=1;rounded=0;" parent="HRCa3_O8-2l-VFVqgWmT-49" edge="1">
          <mxGeometry width="50" height="50" relative="1" as="geometry">
            <mxPoint x="20" y="40" as="sourcePoint" />
            <mxPoint x="20" as="targetPoint" />
          </mxGeometry>
        </mxCell>
        <mxCell id="HRCa3_O8-2l-VFVqgWmT-51" value="" style="endArrow=none;html=1;rounded=0;" parent="HRCa3_O8-2l-VFVqgWmT-49" edge="1">
          <mxGeometry width="50" height="50" relative="1" as="geometry">
            <mxPoint x="29" y="40" as="sourcePoint" />
            <mxPoint x="29" as="targetPoint" />
          </mxGeometry>
        </mxCell>
        <mxCell id="HRCa3_O8-2l-VFVqgWmT-52" value="" style="endArrow=none;html=1;rounded=0;" parent="HRCa3_O8-2l-VFVqgWmT-49" edge="1">
          <mxGeometry width="50" height="50" relative="1" as="geometry">
            <mxPoint x="20" y="40" as="sourcePoint" />
            <mxPoint y="40" as="targetPoint" />
          </mxGeometry>
        </mxCell>
        <mxCell id="HRCa3_O8-2l-VFVqgWmT-53" value="" style="endArrow=none;html=1;rounded=0;" parent="HRCa3_O8-2l-VFVqgWmT-49" edge="1">
          <mxGeometry width="50" height="50" relative="1" as="geometry">
            <mxPoint x="20" as="sourcePoint" />
            <mxPoint as="targetPoint" />
          </mxGeometry>
        </mxCell>
        <mxCell id="HRCa3_O8-2l-VFVqgWmT-54" value="" style="endArrow=none;html=1;rounded=0;" parent="HRCa3_O8-2l-VFVqgWmT-63" edge="1">
          <mxGeometry width="50" height="50" relative="1" as="geometry">
            <mxPoint x="111" y="50" as="sourcePoint" />
            <mxPoint x="111" y="70" as="targetPoint" />
          </mxGeometry>
        </mxCell>
        <mxCell id="HRCa3_O8-2l-VFVqgWmT-55" value="" style="endArrow=none;html=1;rounded=0;" parent="HRCa3_O8-2l-VFVqgWmT-63" edge="1">
          <mxGeometry width="50" height="50" relative="1" as="geometry">
            <mxPoint x="50" y="50" as="sourcePoint" />
            <mxPoint x="50" y="70" as="targetPoint" />
          </mxGeometry>
        </mxCell>
        <mxCell id="HRCa3_O8-2l-VFVqgWmT-56" value="" style="endArrow=none;html=1;rounded=0;" parent="HRCa3_O8-2l-VFVqgWmT-63" edge="1">
          <mxGeometry width="50" height="50" relative="1" as="geometry">
            <mxPoint x="50" y="60" as="sourcePoint" />
            <mxPoint x="110" y="60" as="targetPoint" />
          </mxGeometry>
        </mxCell>
        <mxCell id="HRCa3_O8-2l-VFVqgWmT-57" value="" style="endArrow=none;html=1;rounded=0;" parent="HRCa3_O8-2l-VFVqgWmT-63" edge="1">
          <mxGeometry width="50" height="50" relative="1" as="geometry">
            <mxPoint x="50" y="120" as="sourcePoint" />
            <mxPoint x="110" y="120" as="targetPoint" />
          </mxGeometry>
        </mxCell>
        <mxCell id="HRCa3_O8-2l-VFVqgWmT-58" value="" style="endArrow=none;html=1;rounded=0;" parent="HRCa3_O8-2l-VFVqgWmT-63" edge="1">
          <mxGeometry width="50" height="50" relative="1" as="geometry">
            <mxPoint x="50" y="120" as="sourcePoint" />
            <mxPoint x="50" y="110" as="targetPoint" />
          </mxGeometry>
        </mxCell>
        <mxCell id="HRCa3_O8-2l-VFVqgWmT-59" value="" style="endArrow=none;html=1;rounded=0;" parent="HRCa3_O8-2l-VFVqgWmT-63" edge="1">
          <mxGeometry width="50" height="50" relative="1" as="geometry">
            <mxPoint x="110" y="120" as="sourcePoint" />
            <mxPoint x="110" y="110" as="targetPoint" />
          </mxGeometry>
        </mxCell>
        <mxCell id="HRCa3_O8-2l-VFVqgWmT-60" value="" style="endArrow=none;html=1;rounded=0;" parent="HRCa3_O8-2l-VFVqgWmT-63" edge="1">
          <mxGeometry width="50" height="50" relative="1" as="geometry">
            <mxPoint x="51" as="sourcePoint" />
            <mxPoint x="210" as="targetPoint" />
          </mxGeometry>
        </mxCell>
        <mxCell id="HRCa3_O8-2l-VFVqgWmT-61" value="" style="endArrow=none;html=1;rounded=0;" parent="HRCa3_O8-2l-VFVqgWmT-63" edge="1">
          <mxGeometry width="50" height="50" relative="1" as="geometry">
            <mxPoint x="50" y="10" as="sourcePoint" />
            <mxPoint x="50" as="targetPoint" />
          </mxGeometry>
        </mxCell>
        <mxCell id="HRCa3_O8-2l-VFVqgWmT-62" value="" style="endArrow=none;html=1;rounded=0;" parent="HRCa3_O8-2l-VFVqgWmT-63" edge="1">
          <mxGeometry width="50" height="50" relative="1" as="geometry">
            <mxPoint x="110" y="10" as="sourcePoint" />
            <mxPoint x="110" as="targetPoint" />
          </mxGeometry>
        </mxCell>
        <mxCell id="HRCa3_O8-2l-VFVqgWmT-109" value="" style="endArrow=none;html=1;rounded=0;" parent="HRCa3_O8-2l-VFVqgWmT-63" edge="1">
          <mxGeometry width="50" height="50" relative="1" as="geometry">
            <mxPoint x="80.47000000000003" y="140" as="sourcePoint" />
            <mxPoint x="80.47000000000003" y="120" as="targetPoint" />
          </mxGeometry>
        </mxCell>
        <mxCell id="HRCa3_O8-2l-VFVqgWmT-197" value="w" style="text;html=1;align=center;verticalAlign=middle;whiteSpace=wrap;rounded=0;rotation=0;fontColor=#CC0000;" parent="HRCa3_O8-2l-VFVqgWmT-63" vertex="1">
          <mxGeometry x="70.67000000000002" y="40" width="20" height="20" as="geometry" />
        </mxCell>
        <mxCell id="HRCa3_O8-2l-VFVqgWmT-64" value="" style="group" parent="HRCa3_O8-2l-VFVqgWmT-97" vertex="1" connectable="0">
          <mxGeometry y="70" width="50" height="40" as="geometry" />
        </mxCell>
        <mxCell id="HRCa3_O8-2l-VFVqgWmT-65" value="" style="group" parent="HRCa3_O8-2l-VFVqgWmT-64" vertex="1" connectable="0">
          <mxGeometry x="10" width="40" height="40" as="geometry" />
        </mxCell>
        <mxCell id="HRCa3_O8-2l-VFVqgWmT-66" value="" style="endArrow=none;html=1;rounded=0;" parent="HRCa3_O8-2l-VFVqgWmT-65" edge="1">
          <mxGeometry width="50" height="50" relative="1" as="geometry">
            <mxPoint x="20" y="40" as="sourcePoint" />
            <mxPoint x="20" as="targetPoint" />
          </mxGeometry>
        </mxCell>
        <mxCell id="HRCa3_O8-2l-VFVqgWmT-67" value="" style="endArrow=none;html=1;rounded=0;" parent="HRCa3_O8-2l-VFVqgWmT-65" edge="1">
          <mxGeometry width="50" height="50" relative="1" as="geometry">
            <mxPoint x="10" y="40" as="sourcePoint" />
            <mxPoint x="10" as="targetPoint" />
          </mxGeometry>
        </mxCell>
        <mxCell id="HRCa3_O8-2l-VFVqgWmT-68" value="" style="ellipse;whiteSpace=wrap;html=1;aspect=fixed;" parent="HRCa3_O8-2l-VFVqgWmT-65" vertex="1">
          <mxGeometry y="15" width="10" height="10" as="geometry" />
        </mxCell>
        <mxCell id="HRCa3_O8-2l-VFVqgWmT-69" value="" style="endArrow=none;html=1;rounded=0;" parent="HRCa3_O8-2l-VFVqgWmT-65" edge="1">
          <mxGeometry width="50" height="50" relative="1" as="geometry">
            <mxPoint x="40" as="sourcePoint" />
            <mxPoint x="20" as="targetPoint" />
          </mxGeometry>
        </mxCell>
        <mxCell id="HRCa3_O8-2l-VFVqgWmT-70" value="" style="endArrow=none;html=1;rounded=0;" parent="HRCa3_O8-2l-VFVqgWmT-65" edge="1">
          <mxGeometry width="50" height="50" relative="1" as="geometry">
            <mxPoint x="20" y="40" as="sourcePoint" />
            <mxPoint x="40" y="40" as="targetPoint" />
          </mxGeometry>
        </mxCell>
        <mxCell id="HRCa3_O8-2l-VFVqgWmT-71" value="" style="endArrow=none;html=1;rounded=0;" parent="HRCa3_O8-2l-VFVqgWmT-64" edge="1">
          <mxGeometry width="50" height="50" relative="1" as="geometry">
            <mxPoint y="20" as="sourcePoint" />
            <mxPoint x="10" y="19.920000000000016" as="targetPoint" />
          </mxGeometry>
        </mxCell>
        <mxCell id="HRCa3_O8-2l-VFVqgWmT-72" value="" style="endArrow=none;html=1;rounded=0;" parent="HRCa3_O8-2l-VFVqgWmT-97" edge="1">
          <mxGeometry width="50" height="50" relative="1" as="geometry">
            <mxPoint x="50" y="120" as="sourcePoint" />
            <mxPoint x="50" y="110" as="targetPoint" />
          </mxGeometry>
        </mxCell>
        <mxCell id="HRCa3_O8-2l-VFVqgWmT-73" value="" style="endArrow=none;html=1;rounded=0;" parent="HRCa3_O8-2l-VFVqgWmT-97" edge="1">
          <mxGeometry width="50" height="50" relative="1" as="geometry">
            <mxPoint x="50" y="70" as="sourcePoint" />
            <mxPoint x="50" y="50" as="targetPoint" />
          </mxGeometry>
        </mxCell>
        <mxCell id="HRCa3_O8-2l-VFVqgWmT-92" value="" style="group;rotation=-180;" parent="HRCa3_O8-2l-VFVqgWmT-97" vertex="1" connectable="0">
          <mxGeometry x="110" width="50" height="110" as="geometry" />
        </mxCell>
        <mxCell id="HRCa3_O8-2l-VFVqgWmT-74" value="" style="group;rotation=-180;" parent="HRCa3_O8-2l-VFVqgWmT-92" vertex="1" connectable="0">
          <mxGeometry y="70" width="50" height="40" as="geometry" />
        </mxCell>
        <mxCell id="HRCa3_O8-2l-VFVqgWmT-75" value="" style="group;rotation=-180;" parent="HRCa3_O8-2l-VFVqgWmT-74" vertex="1" connectable="0">
          <mxGeometry width="40" height="40" as="geometry" />
        </mxCell>
        <mxCell id="HRCa3_O8-2l-VFVqgWmT-76" value="" style="endArrow=none;html=1;rounded=0;" parent="HRCa3_O8-2l-VFVqgWmT-75" edge="1">
          <mxGeometry width="50" height="50" relative="1" as="geometry">
            <mxPoint x="20" as="sourcePoint" />
            <mxPoint x="20" y="40" as="targetPoint" />
          </mxGeometry>
        </mxCell>
        <mxCell id="HRCa3_O8-2l-VFVqgWmT-77" value="" style="endArrow=none;html=1;rounded=0;" parent="HRCa3_O8-2l-VFVqgWmT-75" edge="1">
          <mxGeometry width="50" height="50" relative="1" as="geometry">
            <mxPoint x="30" as="sourcePoint" />
            <mxPoint x="30" y="40" as="targetPoint" />
          </mxGeometry>
        </mxCell>
        <mxCell id="HRCa3_O8-2l-VFVqgWmT-78" value="" style="ellipse;whiteSpace=wrap;html=1;aspect=fixed;rotation=-180;" parent="HRCa3_O8-2l-VFVqgWmT-75" vertex="1">
          <mxGeometry x="30" y="15" width="10" height="10" as="geometry" />
        </mxCell>
        <mxCell id="HRCa3_O8-2l-VFVqgWmT-79" value="" style="endArrow=none;html=1;rounded=0;" parent="HRCa3_O8-2l-VFVqgWmT-75" edge="1">
          <mxGeometry width="50" height="50" relative="1" as="geometry">
            <mxPoint y="40" as="sourcePoint" />
            <mxPoint x="20" y="40" as="targetPoint" />
          </mxGeometry>
        </mxCell>
        <mxCell id="HRCa3_O8-2l-VFVqgWmT-80" value="" style="endArrow=none;html=1;rounded=0;" parent="HRCa3_O8-2l-VFVqgWmT-75" edge="1">
          <mxGeometry width="50" height="50" relative="1" as="geometry">
            <mxPoint x="20" as="sourcePoint" />
            <mxPoint as="targetPoint" />
          </mxGeometry>
        </mxCell>
        <mxCell id="HRCa3_O8-2l-VFVqgWmT-81" value="" style="endArrow=none;html=1;rounded=0;" parent="HRCa3_O8-2l-VFVqgWmT-74" edge="1">
          <mxGeometry width="50" height="50" relative="1" as="geometry">
            <mxPoint x="50" y="20" as="sourcePoint" />
            <mxPoint x="40" y="20" as="targetPoint" />
          </mxGeometry>
        </mxCell>
        <mxCell id="HRCa3_O8-2l-VFVqgWmT-82" value="" style="group;rotation=-180;" parent="HRCa3_O8-2l-VFVqgWmT-92" vertex="1" connectable="0">
          <mxGeometry y="10" width="50" height="40" as="geometry" />
        </mxCell>
        <mxCell id="HRCa3_O8-2l-VFVqgWmT-83" value="" style="group;rotation=-180;" parent="HRCa3_O8-2l-VFVqgWmT-82" vertex="1" connectable="0">
          <mxGeometry width="40" height="40" as="geometry" />
        </mxCell>
        <mxCell id="HRCa3_O8-2l-VFVqgWmT-84" value="" style="endArrow=none;html=1;rounded=0;" parent="HRCa3_O8-2l-VFVqgWmT-83" edge="1">
          <mxGeometry width="50" height="50" relative="1" as="geometry">
            <mxPoint x="20" as="sourcePoint" />
            <mxPoint x="20" y="40" as="targetPoint" />
          </mxGeometry>
        </mxCell>
        <mxCell id="HRCa3_O8-2l-VFVqgWmT-85" value="" style="endArrow=none;html=1;rounded=0;" parent="HRCa3_O8-2l-VFVqgWmT-83" edge="1">
          <mxGeometry width="50" height="50" relative="1" as="geometry">
            <mxPoint x="30" as="sourcePoint" />
            <mxPoint x="30" y="40" as="targetPoint" />
          </mxGeometry>
        </mxCell>
        <mxCell id="HRCa3_O8-2l-VFVqgWmT-86" value="" style="ellipse;whiteSpace=wrap;html=1;aspect=fixed;rotation=-180;" parent="HRCa3_O8-2l-VFVqgWmT-83" vertex="1">
          <mxGeometry x="30" y="15" width="10" height="10" as="geometry" />
        </mxCell>
        <mxCell id="HRCa3_O8-2l-VFVqgWmT-87" value="" style="endArrow=none;html=1;rounded=0;" parent="HRCa3_O8-2l-VFVqgWmT-83" edge="1">
          <mxGeometry width="50" height="50" relative="1" as="geometry">
            <mxPoint y="40" as="sourcePoint" />
            <mxPoint x="20" y="40" as="targetPoint" />
          </mxGeometry>
        </mxCell>
        <mxCell id="HRCa3_O8-2l-VFVqgWmT-88" value="" style="endArrow=none;html=1;rounded=0;" parent="HRCa3_O8-2l-VFVqgWmT-83" edge="1">
          <mxGeometry width="50" height="50" relative="1" as="geometry">
            <mxPoint x="20" as="sourcePoint" />
            <mxPoint as="targetPoint" />
          </mxGeometry>
        </mxCell>
        <mxCell id="HRCa3_O8-2l-VFVqgWmT-89" value="" style="endArrow=none;html=1;rounded=0;" parent="HRCa3_O8-2l-VFVqgWmT-82" edge="1">
          <mxGeometry width="50" height="50" relative="1" as="geometry">
            <mxPoint x="50" y="20" as="sourcePoint" />
            <mxPoint x="40" y="20" as="targetPoint" />
          </mxGeometry>
        </mxCell>
        <mxCell id="HRCa3_O8-2l-VFVqgWmT-90" value="" style="endArrow=none;html=1;rounded=0;" parent="HRCa3_O8-2l-VFVqgWmT-92" edge="1">
          <mxGeometry width="50" height="50" relative="1" as="geometry">
            <mxPoint as="sourcePoint" />
            <mxPoint y="10" as="targetPoint" />
          </mxGeometry>
        </mxCell>
        <mxCell id="HRCa3_O8-2l-VFVqgWmT-91" value="" style="endArrow=none;html=1;rounded=0;" parent="HRCa3_O8-2l-VFVqgWmT-92" edge="1">
          <mxGeometry width="50" height="50" relative="1" as="geometry">
            <mxPoint y="50" as="sourcePoint" />
            <mxPoint y="70" as="targetPoint" />
          </mxGeometry>
        </mxCell>
        <mxCell id="HRCa3_O8-2l-VFVqgWmT-93" value="" style="endArrow=none;html=1;rounded=0;" parent="HRCa3_O8-2l-VFVqgWmT-97" edge="1">
          <mxGeometry width="50" height="50" relative="1" as="geometry">
            <mxPoint x="110" y="120" as="sourcePoint" />
            <mxPoint x="110" y="110" as="targetPoint" />
          </mxGeometry>
        </mxCell>
        <mxCell id="HRCa3_O8-2l-VFVqgWmT-95" value="" style="endArrow=none;html=1;rounded=0;" parent="HRCa3_O8-2l-VFVqgWmT-97" edge="1">
          <mxGeometry width="50" height="50" relative="1" as="geometry">
            <mxPoint x="50" y="10" as="sourcePoint" />
            <mxPoint x="50" as="targetPoint" />
          </mxGeometry>
        </mxCell>
        <mxCell id="HRCa3_O8-2l-VFVqgWmT-96" value="" style="endArrow=none;html=1;rounded=0;" parent="HRCa3_O8-2l-VFVqgWmT-97" edge="1">
          <mxGeometry width="50" height="50" relative="1" as="geometry">
            <mxPoint x="50.66999999999996" as="sourcePoint" />
            <mxPoint x="110.66999999999996" as="targetPoint" />
          </mxGeometry>
        </mxCell>
        <mxCell id="HRCa3_O8-2l-VFVqgWmT-195" value="&lt;font style=&quot;&quot;&gt;u&lt;/font&gt;" style="text;html=1;align=center;verticalAlign=middle;whiteSpace=wrap;rounded=0;rotation=0;fontColor=#FF8000;" parent="HRCa3_O8-2l-VFVqgWmT-97" vertex="1">
          <mxGeometry x="50" y="50" width="20" height="20" as="geometry" />
        </mxCell>
        <mxCell id="HRCa3_O8-2l-VFVqgWmT-196" value="&lt;font style=&quot;&quot;&gt;v&lt;/font&gt;" style="text;html=1;align=center;verticalAlign=middle;whiteSpace=wrap;rounded=0;rotation=0;fontColor=#FF8000;" parent="HRCa3_O8-2l-VFVqgWmT-97" vertex="1">
          <mxGeometry x="90" y="50" width="20" height="20" as="geometry" />
        </mxCell>
        <mxCell id="HRCa3_O8-2l-VFVqgWmT-98" value="A" style="text;html=1;align=center;verticalAlign=middle;whiteSpace=wrap;rounded=0;" parent="HRCa3_O8-2l-VFVqgWmT-112" vertex="1">
          <mxGeometry y="160" width="20" height="20" as="geometry" />
        </mxCell>
        <mxCell id="HRCa3_O8-2l-VFVqgWmT-99" value="B" style="text;html=1;align=center;verticalAlign=middle;whiteSpace=wrap;rounded=0;" parent="HRCa3_O8-2l-VFVqgWmT-112" vertex="1">
          <mxGeometry x="181.35000000000002" y="160" width="20" height="20" as="geometry" />
        </mxCell>
        <mxCell id="HRCa3_O8-2l-VFVqgWmT-100" value="C" style="text;html=1;align=center;verticalAlign=middle;whiteSpace=wrap;rounded=0;" parent="HRCa3_O8-2l-VFVqgWmT-112" vertex="1">
          <mxGeometry y="220" width="20" height="20" as="geometry" />
        </mxCell>
        <mxCell id="HRCa3_O8-2l-VFVqgWmT-101" value="D" style="text;html=1;align=center;verticalAlign=middle;whiteSpace=wrap;rounded=0;" parent="HRCa3_O8-2l-VFVqgWmT-112" vertex="1">
          <mxGeometry x="181.35000000000002" y="220" width="20" height="20" as="geometry" />
        </mxCell>
        <mxCell id="HRCa3_O8-2l-VFVqgWmT-102" value="A" style="text;html=1;align=center;verticalAlign=middle;whiteSpace=wrap;rounded=0;" parent="HRCa3_O8-2l-VFVqgWmT-112" vertex="1">
          <mxGeometry y="40" width="20" height="20" as="geometry" />
        </mxCell>
        <mxCell id="HRCa3_O8-2l-VFVqgWmT-103" value="B" style="text;html=1;align=center;verticalAlign=middle;whiteSpace=wrap;rounded=0;" parent="HRCa3_O8-2l-VFVqgWmT-112" vertex="1">
          <mxGeometry y="100" width="20" height="20" as="geometry" />
        </mxCell>
        <mxCell id="HRCa3_O8-2l-VFVqgWmT-104" value="C" style="text;html=1;align=center;verticalAlign=middle;whiteSpace=wrap;rounded=0;" parent="HRCa3_O8-2l-VFVqgWmT-112" vertex="1">
          <mxGeometry x="181.35000000000002" y="40" width="20" height="20" as="geometry" />
        </mxCell>
        <mxCell id="HRCa3_O8-2l-VFVqgWmT-105" value="D" style="text;html=1;align=center;verticalAlign=middle;whiteSpace=wrap;rounded=0;" parent="HRCa3_O8-2l-VFVqgWmT-112" vertex="1">
          <mxGeometry x="181.35000000000002" y="100" width="20" height="20" as="geometry" />
        </mxCell>
        <mxCell id="HRCa3_O8-2l-VFVqgWmT-107" value="" style="endArrow=none;html=1;rounded=0;" parent="HRCa3_O8-2l-VFVqgWmT-112" edge="1">
          <mxGeometry width="50" height="50" relative="1" as="geometry">
            <mxPoint x="80" as="sourcePoint" />
            <mxPoint x="120" as="targetPoint" />
          </mxGeometry>
        </mxCell>
        <mxCell id="HRCa3_O8-2l-VFVqgWmT-108" value="" style="endArrow=none;html=1;rounded=0;" parent="HRCa3_O8-2l-VFVqgWmT-112" edge="1">
          <mxGeometry width="50" height="50" relative="1" as="geometry">
            <mxPoint x="100" y="20" as="sourcePoint" />
            <mxPoint x="100" as="targetPoint" />
          </mxGeometry>
        </mxCell>
        <mxCell id="HRCa3_O8-2l-VFVqgWmT-110" value="" style="triangle;whiteSpace=wrap;html=1;rotation=90;" parent="HRCa3_O8-2l-VFVqgWmT-112" vertex="1">
          <mxGeometry x="90.66999999999996" y="280" width="20" height="20" as="geometry" />
        </mxCell>
        <mxCell id="HRCa3_O8-2l-VFVqgWmT-133" value="" style="group" parent="HRCa3_O8-2l-VFVqgWmT-137" vertex="1" connectable="0">
          <mxGeometry x="230" y="70" width="70" height="160" as="geometry" />
        </mxCell>
        <mxCell id="HRCa3_O8-2l-VFVqgWmT-113" value="" style="group" parent="HRCa3_O8-2l-VFVqgWmT-133" vertex="1" connectable="0">
          <mxGeometry y="80" width="50" height="40" as="geometry" />
        </mxCell>
        <mxCell id="HRCa3_O8-2l-VFVqgWmT-114" value="" style="endArrow=none;html=1;rounded=0;" parent="HRCa3_O8-2l-VFVqgWmT-113" edge="1">
          <mxGeometry width="50" height="50" relative="1" as="geometry">
            <mxPoint y="20" as="sourcePoint" />
            <mxPoint x="10" y="20" as="targetPoint" />
            <Array as="points">
              <mxPoint x="20" y="20" />
            </Array>
          </mxGeometry>
        </mxCell>
        <mxCell id="HRCa3_O8-2l-VFVqgWmT-115" value="" style="group" parent="HRCa3_O8-2l-VFVqgWmT-113" vertex="1" connectable="0">
          <mxGeometry x="21" width="29" height="40" as="geometry" />
        </mxCell>
        <mxCell id="HRCa3_O8-2l-VFVqgWmT-116" value="" style="endArrow=none;html=1;rounded=0;" parent="HRCa3_O8-2l-VFVqgWmT-115" edge="1">
          <mxGeometry width="50" height="50" relative="1" as="geometry">
            <mxPoint x="9" as="sourcePoint" />
            <mxPoint x="9" y="40" as="targetPoint" />
          </mxGeometry>
        </mxCell>
        <mxCell id="HRCa3_O8-2l-VFVqgWmT-117" value="" style="endArrow=none;html=1;rounded=0;" parent="HRCa3_O8-2l-VFVqgWmT-115" edge="1">
          <mxGeometry width="50" height="50" relative="1" as="geometry">
            <mxPoint as="sourcePoint" />
            <mxPoint y="40" as="targetPoint" />
          </mxGeometry>
        </mxCell>
        <mxCell id="HRCa3_O8-2l-VFVqgWmT-118" value="" style="endArrow=none;html=1;rounded=0;" parent="HRCa3_O8-2l-VFVqgWmT-115" edge="1">
          <mxGeometry width="50" height="50" relative="1" as="geometry">
            <mxPoint x="9" as="sourcePoint" />
            <mxPoint x="29" as="targetPoint" />
          </mxGeometry>
        </mxCell>
        <mxCell id="HRCa3_O8-2l-VFVqgWmT-119" value="" style="endArrow=none;html=1;rounded=0;" parent="HRCa3_O8-2l-VFVqgWmT-115" edge="1">
          <mxGeometry width="50" height="50" relative="1" as="geometry">
            <mxPoint x="9" y="40" as="sourcePoint" />
            <mxPoint x="29" y="40" as="targetPoint" />
          </mxGeometry>
        </mxCell>
        <mxCell id="HRCa3_O8-2l-VFVqgWmT-120" value="" style="group" parent="HRCa3_O8-2l-VFVqgWmT-133" vertex="1" connectable="0">
          <mxGeometry y="20" width="50" height="40" as="geometry" />
        </mxCell>
        <mxCell id="HRCa3_O8-2l-VFVqgWmT-121" value="" style="group" parent="HRCa3_O8-2l-VFVqgWmT-120" vertex="1" connectable="0">
          <mxGeometry x="10" width="40" height="40" as="geometry" />
        </mxCell>
        <mxCell id="HRCa3_O8-2l-VFVqgWmT-122" value="" style="endArrow=none;html=1;rounded=0;" parent="HRCa3_O8-2l-VFVqgWmT-121" edge="1">
          <mxGeometry width="50" height="50" relative="1" as="geometry">
            <mxPoint x="20" y="40" as="sourcePoint" />
            <mxPoint x="20" as="targetPoint" />
          </mxGeometry>
        </mxCell>
        <mxCell id="HRCa3_O8-2l-VFVqgWmT-123" value="" style="endArrow=none;html=1;rounded=0;" parent="HRCa3_O8-2l-VFVqgWmT-121" edge="1">
          <mxGeometry width="50" height="50" relative="1" as="geometry">
            <mxPoint x="10" y="40" as="sourcePoint" />
            <mxPoint x="10" as="targetPoint" />
          </mxGeometry>
        </mxCell>
        <mxCell id="HRCa3_O8-2l-VFVqgWmT-124" value="" style="ellipse;whiteSpace=wrap;html=1;aspect=fixed;" parent="HRCa3_O8-2l-VFVqgWmT-121" vertex="1">
          <mxGeometry y="15" width="10" height="10" as="geometry" />
        </mxCell>
        <mxCell id="HRCa3_O8-2l-VFVqgWmT-125" value="" style="endArrow=none;html=1;rounded=0;" parent="HRCa3_O8-2l-VFVqgWmT-121" edge="1">
          <mxGeometry width="50" height="50" relative="1" as="geometry">
            <mxPoint x="40" as="sourcePoint" />
            <mxPoint x="20" as="targetPoint" />
          </mxGeometry>
        </mxCell>
        <mxCell id="HRCa3_O8-2l-VFVqgWmT-126" value="" style="endArrow=none;html=1;rounded=0;" parent="HRCa3_O8-2l-VFVqgWmT-121" edge="1">
          <mxGeometry width="50" height="50" relative="1" as="geometry">
            <mxPoint x="20" y="40" as="sourcePoint" />
            <mxPoint x="40" y="40" as="targetPoint" />
          </mxGeometry>
        </mxCell>
        <mxCell id="HRCa3_O8-2l-VFVqgWmT-127" value="" style="endArrow=none;html=1;rounded=0;" parent="HRCa3_O8-2l-VFVqgWmT-120" edge="1">
          <mxGeometry width="50" height="50" relative="1" as="geometry">
            <mxPoint y="20" as="sourcePoint" />
            <mxPoint x="10" y="19.920000000000016" as="targetPoint" />
          </mxGeometry>
        </mxCell>
        <mxCell id="HRCa3_O8-2l-VFVqgWmT-128" value="" style="endArrow=none;html=1;rounded=0;" parent="HRCa3_O8-2l-VFVqgWmT-133" edge="1">
          <mxGeometry width="50" height="50" relative="1" as="geometry">
            <mxPoint x="49.60000000000002" y="60" as="sourcePoint" />
            <mxPoint x="49.60000000000002" y="80" as="targetPoint" />
          </mxGeometry>
        </mxCell>
        <mxCell id="HRCa3_O8-2l-VFVqgWmT-129" value="" style="endArrow=none;html=1;rounded=0;" parent="HRCa3_O8-2l-VFVqgWmT-133" edge="1">
          <mxGeometry width="50" height="50" relative="1" as="geometry">
            <mxPoint x="49.80000000000007" y="140" as="sourcePoint" />
            <mxPoint x="49.80000000000007" y="120" as="targetPoint" />
          </mxGeometry>
        </mxCell>
        <mxCell id="HRCa3_O8-2l-VFVqgWmT-130" value="" style="triangle;whiteSpace=wrap;html=1;rotation=90;" parent="HRCa3_O8-2l-VFVqgWmT-133" vertex="1">
          <mxGeometry x="40" y="140" width="20" height="20" as="geometry" />
        </mxCell>
        <mxCell id="HRCa3_O8-2l-VFVqgWmT-131" value="" style="endArrow=none;html=1;rounded=0;" parent="HRCa3_O8-2l-VFVqgWmT-133" edge="1">
          <mxGeometry width="50" height="50" relative="1" as="geometry">
            <mxPoint x="30" as="sourcePoint" />
            <mxPoint x="70" as="targetPoint" />
          </mxGeometry>
        </mxCell>
        <mxCell id="HRCa3_O8-2l-VFVqgWmT-132" value="" style="endArrow=none;html=1;rounded=0;" parent="HRCa3_O8-2l-VFVqgWmT-133" edge="1">
          <mxGeometry width="50" height="50" relative="1" as="geometry">
            <mxPoint x="50" y="20" as="sourcePoint" />
            <mxPoint x="50" as="targetPoint" />
          </mxGeometry>
        </mxCell>
        <mxCell id="HRCa3_O8-2l-VFVqgWmT-135" value="" style="endArrow=none;html=1;rounded=0;" parent="HRCa3_O8-2l-VFVqgWmT-137" edge="1">
          <mxGeometry width="50" height="50" relative="1" as="geometry">
            <mxPoint x="280" y="140" as="sourcePoint" />
            <mxPoint x="320" y="140" as="targetPoint" />
          </mxGeometry>
        </mxCell>
        <mxCell id="HRCa3_O8-2l-VFVqgWmT-136" value="" style="endArrow=none;html=1;rounded=0;" parent="HRCa3_O8-2l-VFVqgWmT-137" edge="1">
          <mxGeometry width="50" height="50" relative="1" as="geometry">
            <mxPoint x="230" y="170" as="sourcePoint" />
            <mxPoint x="230" y="110" as="targetPoint" />
          </mxGeometry>
        </mxCell>
        <mxCell id="HRCa3_O8-2l-VFVqgWmT-198" value="$$\bar{Y}$$" style="text;html=1;align=center;verticalAlign=middle;whiteSpace=wrap;rounded=0;rotation=0;" parent="HRCa3_O8-2l-VFVqgWmT-137" vertex="1">
          <mxGeometry x="210" y="120" width="15" height="20" as="geometry" />
        </mxCell>
        <mxCell id="HRCa3_O8-2l-VFVqgWmT-138" value="Y" style="text;html=1;align=center;verticalAlign=middle;whiteSpace=wrap;rounded=0;" parent="HRCa3_O8-2l-VFVqgWmT-139" vertex="1">
          <mxGeometry x="320" y="130" width="20" height="20" as="geometry" />
        </mxCell>
        <mxCell id="HRCa3_O8-2l-VFVqgWmT-189" value="" style="group" parent="1" vertex="1" connectable="0">
          <mxGeometry x="422" y="60" width="215" height="210" as="geometry" />
        </mxCell>
        <mxCell id="HRCa3_O8-2l-VFVqgWmT-161" value="" style="group;rotation=90;" parent="HRCa3_O8-2l-VFVqgWmT-189" vertex="1" connectable="0">
          <mxGeometry x="25" y="30" width="130" height="150" as="geometry" />
        </mxCell>
        <mxCell id="HRCa3_O8-2l-VFVqgWmT-140" value="" style="ellipse;whiteSpace=wrap;html=1;aspect=fixed;rotation=90;fillColor=#FF8000;" parent="HRCa3_O8-2l-VFVqgWmT-161" vertex="1">
          <mxGeometry x="130" y="70" width="10" height="10" as="geometry" />
        </mxCell>
        <mxCell id="HRCa3_O8-2l-VFVqgWmT-141" value="" style="ellipse;whiteSpace=wrap;html=1;aspect=fixed;rotation=90;fillColor=#FF8000;" parent="HRCa3_O8-2l-VFVqgWmT-161" vertex="1">
          <mxGeometry x="60" y="110" width="10" height="10" as="geometry" />
        </mxCell>
        <mxCell id="HRCa3_O8-2l-VFVqgWmT-142" value="" style="ellipse;whiteSpace=wrap;html=1;aspect=fixed;rotation=90;fillColor=#FF8000;" parent="HRCa3_O8-2l-VFVqgWmT-161" vertex="1">
          <mxGeometry x="-10" y="70" width="10" height="10" as="geometry" />
        </mxCell>
        <mxCell id="HRCa3_O8-2l-VFVqgWmT-144" value="" style="ellipse;whiteSpace=wrap;html=1;aspect=fixed;rotation=90;fillColor=#FF8000;" parent="HRCa3_O8-2l-VFVqgWmT-161" vertex="1">
          <mxGeometry x="60" y="30" width="10" height="10" as="geometry" />
        </mxCell>
        <mxCell id="HRCa3_O8-2l-VFVqgWmT-147" value="" style="endArrow=none;html=1;rounded=0;exitX=1;exitY=0.5;exitDx=0;exitDy=0;entryX=0.5;entryY=0;entryDx=0;entryDy=0;edgeStyle=orthogonalEdgeStyle;curved=1;startArrow=classic;startFill=1;endFill=1;" parent="HRCa3_O8-2l-VFVqgWmT-161" source="HRCa3_O8-2l-VFVqgWmT-140" target="HRCa3_O8-2l-VFVqgWmT-141" edge="1">
          <mxGeometry width="50" height="50" relative="1" as="geometry">
            <mxPoint x="-110" y="-10" as="sourcePoint" />
            <mxPoint x="-60" y="40" as="targetPoint" />
          </mxGeometry>
        </mxCell>
        <mxCell id="HRCa3_O8-2l-VFVqgWmT-148" value="" style="endArrow=classic;html=1;rounded=1;entryX=0.5;entryY=1;entryDx=0;entryDy=0;exitX=1;exitY=0.5;exitDx=0;exitDy=0;curved=1;edgeStyle=orthogonalEdgeStyle;" parent="HRCa3_O8-2l-VFVqgWmT-161" source="HRCa3_O8-2l-VFVqgWmT-142" target="HRCa3_O8-2l-VFVqgWmT-141" edge="1">
          <mxGeometry width="50" height="50" relative="1" as="geometry">
            <mxPoint x="59" y="121" as="sourcePoint" />
            <mxPoint x="-60" y="200" as="targetPoint" />
          </mxGeometry>
        </mxCell>
        <mxCell id="HRCa3_O8-2l-VFVqgWmT-149" value="" style="endArrow=none;html=1;rounded=0;entryX=0.5;entryY=1;entryDx=0;entryDy=0;exitX=0;exitY=0.5;exitDx=0;exitDy=0;edgeStyle=orthogonalEdgeStyle;curved=1;startFill=1;startArrow=classic;" parent="HRCa3_O8-2l-VFVqgWmT-161" source="HRCa3_O8-2l-VFVqgWmT-142" target="HRCa3_O8-2l-VFVqgWmT-144" edge="1">
          <mxGeometry width="50" height="50" relative="1" as="geometry">
            <mxPoint x="51" y="121" as="sourcePoint" />
            <mxPoint x="9" y="89" as="targetPoint" />
          </mxGeometry>
        </mxCell>
        <mxCell id="HRCa3_O8-2l-VFVqgWmT-150" value="" style="endArrow=classic;html=1;rounded=0;entryX=0.5;entryY=0;entryDx=0;entryDy=0;exitX=0;exitY=0.5;exitDx=0;exitDy=0;edgeStyle=orthogonalEdgeStyle;curved=1;" parent="HRCa3_O8-2l-VFVqgWmT-161" source="HRCa3_O8-2l-VFVqgWmT-140" target="HRCa3_O8-2l-VFVqgWmT-144" edge="1">
          <mxGeometry width="50" height="50" relative="1" as="geometry">
            <mxPoint x="51" y="49" as="sourcePoint" />
            <mxPoint x="9" y="81" as="targetPoint" />
          </mxGeometry>
        </mxCell>
        <mxCell id="HRCa3_O8-2l-VFVqgWmT-153" value="v" style="text;html=1;align=center;verticalAlign=middle;whiteSpace=wrap;rounded=0;rotation=0;fontColor=#FF8000;" parent="HRCa3_O8-2l-VFVqgWmT-161" vertex="1">
          <mxGeometry x="55" y="90" width="20" height="20" as="geometry" />
        </mxCell>
        <mxCell id="HRCa3_O8-2l-VFVqgWmT-154" value="&lt;font style=&quot;&quot;&gt;u&lt;/font&gt;" style="text;html=1;align=center;verticalAlign=middle;whiteSpace=wrap;rounded=0;rotation=0;fontColor=#FF8000;" parent="HRCa3_O8-2l-VFVqgWmT-161" vertex="1">
          <mxGeometry x="55" y="10" width="20" height="20" as="geometry" />
        </mxCell>
        <mxCell id="HRCa3_O8-2l-VFVqgWmT-155" value="A" style="text;html=1;align=center;verticalAlign=middle;whiteSpace=wrap;rounded=0;rotation=0;" parent="HRCa3_O8-2l-VFVqgWmT-161" vertex="1">
          <mxGeometry x="115" y="25" width="20" height="20" as="geometry" />
        </mxCell>
        <mxCell id="HRCa3_O8-2l-VFVqgWmT-156" value="C" style="text;html=1;align=center;verticalAlign=middle;whiteSpace=wrap;rounded=0;rotation=0;" parent="HRCa3_O8-2l-VFVqgWmT-161" vertex="1">
          <mxGeometry x="115" y="105" width="20" height="20" as="geometry" />
        </mxCell>
        <mxCell id="HRCa3_O8-2l-VFVqgWmT-158" value="D" style="text;html=1;align=center;verticalAlign=middle;whiteSpace=wrap;rounded=0;rotation=0;" parent="HRCa3_O8-2l-VFVqgWmT-161" vertex="1">
          <mxGeometry x="-5" y="105" width="20" height="20" as="geometry" />
        </mxCell>
        <mxCell id="HRCa3_O8-2l-VFVqgWmT-159" value="B" style="text;html=1;align=center;verticalAlign=middle;whiteSpace=wrap;rounded=0;rotation=0;" parent="HRCa3_O8-2l-VFVqgWmT-161" vertex="1">
          <mxGeometry x="-5" y="25" width="20" height="20" as="geometry" />
        </mxCell>
        <mxCell id="HRCa3_O8-2l-VFVqgWmT-170" value="w" style="text;html=1;align=center;verticalAlign=middle;whiteSpace=wrap;rounded=0;rotation=0;fontColor=#CC0000;" parent="HRCa3_O8-2l-VFVqgWmT-161" vertex="1">
          <mxGeometry x="55" y="51" width="20" height="20" as="geometry" />
        </mxCell>
        <mxCell id="HRCa3_O8-2l-VFVqgWmT-190" value="A" style="text;html=1;align=center;verticalAlign=middle;whiteSpace=wrap;rounded=0;rotation=0;" parent="HRCa3_O8-2l-VFVqgWmT-161" vertex="1">
          <mxGeometry x="20" y="-5" width="20" height="20" as="geometry" />
        </mxCell>
        <mxCell id="HRCa3_O8-2l-VFVqgWmT-191" value="B" style="text;html=1;align=center;verticalAlign=middle;whiteSpace=wrap;rounded=0;rotation=0;" parent="HRCa3_O8-2l-VFVqgWmT-161" vertex="1">
          <mxGeometry x="86" y="-7" width="20" height="20" as="geometry" />
        </mxCell>
        <mxCell id="HRCa3_O8-2l-VFVqgWmT-162" value="" style="ellipse;whiteSpace=wrap;html=1;aspect=fixed;fillColor=#CC0000;" parent="HRCa3_O8-2l-VFVqgWmT-189" vertex="1">
          <mxGeometry x="85" y="20" width="10" height="10" as="geometry" />
        </mxCell>
        <mxCell id="HRCa3_O8-2l-VFVqgWmT-163" value="" style="ellipse;whiteSpace=wrap;html=1;aspect=fixed;fillColor=#CC0000;" parent="HRCa3_O8-2l-VFVqgWmT-189" vertex="1">
          <mxGeometry x="85" y="100" width="10" height="10" as="geometry" />
        </mxCell>
        <mxCell id="HRCa3_O8-2l-VFVqgWmT-164" value="" style="ellipse;whiteSpace=wrap;html=1;aspect=fixed;fillColor=#CC0000;" parent="HRCa3_O8-2l-VFVqgWmT-189" vertex="1">
          <mxGeometry x="85" y="180" width="10" height="10" as="geometry" />
        </mxCell>
        <mxCell id="HRCa3_O8-2l-VFVqgWmT-165" value="" style="endArrow=classic;html=1;rounded=0;exitX=0;exitY=0.5;exitDx=0;exitDy=0;entryX=0;entryY=0.5;entryDx=0;entryDy=0;edgeStyle=orthogonalEdgeStyle;curved=1;" parent="HRCa3_O8-2l-VFVqgWmT-189" source="HRCa3_O8-2l-VFVqgWmT-163" target="HRCa3_O8-2l-VFVqgWmT-162" edge="1">
          <mxGeometry width="50" height="50" relative="1" as="geometry">
            <mxPoint x="-55" y="10" as="sourcePoint" />
            <mxPoint x="205" y="80" as="targetPoint" />
            <Array as="points">
              <mxPoint x="65" y="105" />
              <mxPoint x="65" y="25" />
            </Array>
          </mxGeometry>
        </mxCell>
        <mxCell id="HRCa3_O8-2l-VFVqgWmT-167" value="" style="endArrow=classic;html=1;rounded=0;entryX=1;entryY=0.5;entryDx=0;entryDy=0;exitX=1;exitY=0.5;exitDx=0;exitDy=0;edgeStyle=orthogonalEdgeStyle;curved=1;" parent="HRCa3_O8-2l-VFVqgWmT-189" source="HRCa3_O8-2l-VFVqgWmT-162" target="HRCa3_O8-2l-VFVqgWmT-163" edge="1">
          <mxGeometry width="50" height="50" relative="1" as="geometry">
            <mxPoint x="-15" y="40" as="sourcePoint" />
            <mxPoint x="35" y="-10" as="targetPoint" />
            <Array as="points">
              <mxPoint x="115" y="25" />
              <mxPoint x="115" y="105" />
            </Array>
          </mxGeometry>
        </mxCell>
        <mxCell id="HRCa3_O8-2l-VFVqgWmT-168" value="" style="endArrow=classic;html=1;rounded=0;entryX=1;entryY=0.5;entryDx=0;entryDy=0;exitX=1;exitY=0.5;exitDx=0;exitDy=0;edgeStyle=orthogonalEdgeStyle;curved=1;" parent="HRCa3_O8-2l-VFVqgWmT-189" source="HRCa3_O8-2l-VFVqgWmT-163" target="HRCa3_O8-2l-VFVqgWmT-164" edge="1">
          <mxGeometry width="50" height="50" relative="1" as="geometry">
            <mxPoint x="95" y="110" as="sourcePoint" />
            <mxPoint x="105" y="160" as="targetPoint" />
            <Array as="points">
              <mxPoint x="115" y="105" />
              <mxPoint x="115" y="185" />
            </Array>
          </mxGeometry>
        </mxCell>
        <mxCell id="HRCa3_O8-2l-VFVqgWmT-169" value="" style="endArrow=classic;html=1;rounded=0;entryX=0;entryY=0.5;entryDx=0;entryDy=0;exitX=0;exitY=0.5;exitDx=0;exitDy=0;edgeStyle=orthogonalEdgeStyle;curved=1;" parent="HRCa3_O8-2l-VFVqgWmT-189" source="HRCa3_O8-2l-VFVqgWmT-164" target="HRCa3_O8-2l-VFVqgWmT-163" edge="1">
          <mxGeometry width="50" height="50" relative="1" as="geometry">
            <mxPoint x="105" y="115" as="sourcePoint" />
            <mxPoint x="105" y="175" as="targetPoint" />
            <Array as="points">
              <mxPoint x="65" y="185" />
              <mxPoint x="65" y="105" />
            </Array>
          </mxGeometry>
        </mxCell>
        <mxCell id="HRCa3_O8-2l-VFVqgWmT-152" value="$$\bar{Y}$$" style="text;html=1;align=center;verticalAlign=middle;whiteSpace=wrap;rounded=0;rotation=0;" parent="HRCa3_O8-2l-VFVqgWmT-189" vertex="1">
          <mxGeometry y="95" width="15" height="20" as="geometry" />
        </mxCell>
        <mxCell id="HRCa3_O8-2l-VFVqgWmT-151" value="$$V_{DD}$$" style="text;html=1;align=center;verticalAlign=middle;whiteSpace=wrap;rounded=0;rotation=0;" parent="HRCa3_O8-2l-VFVqgWmT-189" vertex="1">
          <mxGeometry x="165" y="95" width="30" height="20" as="geometry" />
        </mxCell>
        <mxCell id="HRCa3_O8-2l-VFVqgWmT-187" value="GND" style="text;html=1;align=center;verticalAlign=middle;whiteSpace=wrap;rounded=0;rotation=0;" parent="HRCa3_O8-2l-VFVqgWmT-189" vertex="1">
          <mxGeometry x="75" y="190" width="30" height="20" as="geometry" />
        </mxCell>
        <mxCell id="HRCa3_O8-2l-VFVqgWmT-188" value="$$\bar{Y}$$" style="text;html=1;align=center;verticalAlign=middle;whiteSpace=wrap;rounded=0;rotation=0;" parent="HRCa3_O8-2l-VFVqgWmT-189" vertex="1">
          <mxGeometry x="80" width="20" height="20" as="geometry" />
        </mxCell>
        <mxCell id="HRCa3_O8-2l-VFVqgWmT-192" value="D" style="text;html=1;align=center;verticalAlign=middle;whiteSpace=wrap;rounded=0;rotation=0;" parent="HRCa3_O8-2l-VFVqgWmT-189" vertex="1">
          <mxGeometry x="110" y="165" width="20" height="20" as="geometry" />
        </mxCell>
        <mxCell id="HRCa3_O8-2l-VFVqgWmT-193" value="C" style="text;html=1;align=center;verticalAlign=middle;whiteSpace=wrap;rounded=0;rotation=0;" parent="HRCa3_O8-2l-VFVqgWmT-189" vertex="1">
          <mxGeometry x="45" y="163" width="20" height="20" as="geometry" />
        </mxCell>
        <mxCell id="kstpcVmmqeyMHaQPRAP4-1" value="&lt;font style=&quot;color: rgb(255, 128, 0);&quot;&gt;PUN&lt;/font&gt;" style="text;html=1;align=center;verticalAlign=middle;whiteSpace=wrap;rounded=0;" vertex="1" parent="HRCa3_O8-2l-VFVqgWmT-189">
          <mxGeometry x="155" y="10" width="60" height="30" as="geometry" />
        </mxCell>
        <mxCell id="kstpcVmmqeyMHaQPRAP4-2" value="&lt;font style=&quot;color: rgb(204, 0, 0);&quot;&gt;PDN&lt;/font&gt;" style="text;html=1;align=center;verticalAlign=middle;whiteSpace=wrap;rounded=0;" vertex="1" parent="HRCa3_O8-2l-VFVqgWmT-189">
          <mxGeometry x="155" y="170" width="60" height="30" as="geometry" />
        </mxCell>
        <mxCell id="HRCa3_O8-2l-VFVqgWmT-243" value="" style="group" parent="1" vertex="1" connectable="0">
          <mxGeometry x="40" y="370" width="385" height="200" as="geometry" />
        </mxCell>
        <mxCell id="HRCa3_O8-2l-VFVqgWmT-4" value="" style="endArrow=none;html=1;rounded=0;fillColor=#d5e8d4;strokeColor=#00FF00;jumpSize=6;strokeWidth=3;" parent="HRCa3_O8-2l-VFVqgWmT-243" edge="1">
          <mxGeometry width="50" height="50" relative="1" as="geometry">
            <mxPoint x="31" y="150" as="sourcePoint" />
            <mxPoint x="231" y="150" as="targetPoint" />
          </mxGeometry>
        </mxCell>
        <mxCell id="HRCa3_O8-2l-VFVqgWmT-1" value="" style="endArrow=none;html=1;rounded=0;fillColor=#dae8fc;strokeColor=#007FFF;jumpSize=6;strokeWidth=3;" parent="HRCa3_O8-2l-VFVqgWmT-243" edge="1">
          <mxGeometry width="50" height="50" relative="1" as="geometry">
            <mxPoint x="31" y="10" as="sourcePoint" />
            <mxPoint x="331" y="10" as="targetPoint" />
          </mxGeometry>
        </mxCell>
        <mxCell id="HRCa3_O8-2l-VFVqgWmT-2" value="" style="endArrow=none;html=1;rounded=0;fillColor=#0050ef;strokeColor=#007FFF;jumpSize=6;strokeWidth=3;" parent="HRCa3_O8-2l-VFVqgWmT-243" edge="1">
          <mxGeometry width="50" height="50" relative="1" as="geometry">
            <mxPoint x="31" y="190" as="sourcePoint" />
            <mxPoint x="331" y="190" as="targetPoint" />
          </mxGeometry>
        </mxCell>
        <mxCell id="HRCa3_O8-2l-VFVqgWmT-3" value="" style="endArrow=none;html=1;rounded=0;fillColor=#fff2cc;strokeColor=#FFFF00;jumpSize=6;strokeWidth=3;" parent="HRCa3_O8-2l-VFVqgWmT-243" edge="1">
          <mxGeometry width="50" height="50" relative="1" as="geometry">
            <mxPoint x="31" y="50" as="sourcePoint" />
            <mxPoint x="231" y="50" as="targetPoint" />
          </mxGeometry>
        </mxCell>
        <mxCell id="HRCa3_O8-2l-VFVqgWmT-5" value="" style="endArrow=none;html=1;rounded=0;fillColor=#fff2cc;strokeColor=#FF0000;jumpSize=6;strokeWidth=3;" parent="HRCa3_O8-2l-VFVqgWmT-243" edge="1">
          <mxGeometry width="50" height="50" relative="1" as="geometry">
            <mxPoint x="71" y="40" as="sourcePoint" />
            <mxPoint x="71" y="160" as="targetPoint" />
          </mxGeometry>
        </mxCell>
        <mxCell id="HRCa3_O8-2l-VFVqgWmT-6" value="" style="endArrow=none;html=1;rounded=0;fillColor=#fff2cc;strokeColor=#FF0000;jumpSize=6;strokeWidth=3;" parent="HRCa3_O8-2l-VFVqgWmT-243" edge="1">
          <mxGeometry width="50" height="50" relative="1" as="geometry">
            <mxPoint x="111" y="40" as="sourcePoint" />
            <mxPoint x="111" y="160" as="targetPoint" />
          </mxGeometry>
        </mxCell>
        <mxCell id="HRCa3_O8-2l-VFVqgWmT-7" value="" style="endArrow=none;html=1;rounded=0;fillColor=#fff2cc;strokeColor=#FF0000;jumpSize=6;strokeWidth=3;" parent="HRCa3_O8-2l-VFVqgWmT-243" edge="1">
          <mxGeometry width="50" height="50" relative="1" as="geometry">
            <mxPoint x="151" y="40" as="sourcePoint" />
            <mxPoint x="151" y="160" as="targetPoint" />
          </mxGeometry>
        </mxCell>
        <mxCell id="HRCa3_O8-2l-VFVqgWmT-8" value="" style="endArrow=none;html=1;rounded=0;fillColor=#fff2cc;strokeColor=#FF0000;jumpSize=6;strokeWidth=3;" parent="HRCa3_O8-2l-VFVqgWmT-243" source="HRCa3_O8-2l-VFVqgWmT-203" edge="1">
          <mxGeometry width="50" height="50" relative="1" as="geometry">
            <mxPoint x="191" y="40" as="sourcePoint" />
            <mxPoint x="191" y="160" as="targetPoint" />
          </mxGeometry>
        </mxCell>
        <mxCell id="HRCa3_O8-2l-VFVqgWmT-199" value="" style="endArrow=none;html=1;rounded=0;strokeWidth=3;fillColor=#1ba1e2;strokeColor=#007FFF;" parent="HRCa3_O8-2l-VFVqgWmT-243" edge="1">
          <mxGeometry width="50" height="50" relative="1" as="geometry">
            <mxPoint x="171" y="150" as="sourcePoint" />
            <mxPoint x="171" y="190" as="targetPoint" />
          </mxGeometry>
        </mxCell>
        <mxCell id="HRCa3_O8-2l-VFVqgWmT-200" value="A" style="text;html=1;align=center;verticalAlign=middle;whiteSpace=wrap;rounded=0;" parent="HRCa3_O8-2l-VFVqgWmT-243" vertex="1">
          <mxGeometry x="61" y="20" width="20" height="20" as="geometry" />
        </mxCell>
        <mxCell id="HRCa3_O8-2l-VFVqgWmT-201" value="B" style="text;html=1;align=center;verticalAlign=middle;whiteSpace=wrap;rounded=0;" parent="HRCa3_O8-2l-VFVqgWmT-243" vertex="1">
          <mxGeometry x="101" y="20" width="20" height="20" as="geometry" />
        </mxCell>
        <mxCell id="HRCa3_O8-2l-VFVqgWmT-202" value="D" style="text;html=1;align=center;verticalAlign=middle;whiteSpace=wrap;rounded=0;" parent="HRCa3_O8-2l-VFVqgWmT-243" vertex="1">
          <mxGeometry x="141" y="20" width="20" height="20" as="geometry" />
        </mxCell>
        <mxCell id="HRCa3_O8-2l-VFVqgWmT-204" value="" style="endArrow=none;html=1;rounded=0;strokeWidth=3;fillColor=#1ba1e2;strokeColor=#007FFF;" parent="HRCa3_O8-2l-VFVqgWmT-243" edge="1">
          <mxGeometry width="50" height="50" relative="1" as="geometry">
            <mxPoint x="211" y="130" as="sourcePoint" />
            <mxPoint x="211" y="150" as="targetPoint" />
          </mxGeometry>
        </mxCell>
        <mxCell id="HRCa3_O8-2l-VFVqgWmT-205" value="" style="endArrow=none;html=1;rounded=0;strokeColor=#007FFF;strokeWidth=3;" parent="HRCa3_O8-2l-VFVqgWmT-243" edge="1">
          <mxGeometry width="50" height="50" relative="1" as="geometry">
            <mxPoint x="131" y="130" as="sourcePoint" />
            <mxPoint x="211" y="130" as="targetPoint" />
          </mxGeometry>
        </mxCell>
        <mxCell id="HRCa3_O8-2l-VFVqgWmT-206" value="" style="endArrow=none;html=1;rounded=0;strokeWidth=3;fillColor=#1ba1e2;strokeColor=#007FFF;" parent="HRCa3_O8-2l-VFVqgWmT-243" edge="1">
          <mxGeometry width="50" height="50" relative="1" as="geometry">
            <mxPoint x="131" y="130" as="sourcePoint" />
            <mxPoint x="131" y="170" as="targetPoint" />
          </mxGeometry>
        </mxCell>
        <mxCell id="HRCa3_O8-2l-VFVqgWmT-207" value="" style="endArrow=none;html=1;rounded=0;strokeColor=#007FFF;strokeWidth=3;" parent="HRCa3_O8-2l-VFVqgWmT-243" edge="1">
          <mxGeometry width="50" height="50" relative="1" as="geometry">
            <mxPoint x="51" y="170" as="sourcePoint" />
            <mxPoint x="131" y="170" as="targetPoint" />
          </mxGeometry>
        </mxCell>
        <mxCell id="HRCa3_O8-2l-VFVqgWmT-208" value="" style="endArrow=none;html=1;rounded=0;strokeWidth=3;fillColor=#1ba1e2;strokeColor=#007FFF;" parent="HRCa3_O8-2l-VFVqgWmT-243" edge="1">
          <mxGeometry width="50" height="50" relative="1" as="geometry">
            <mxPoint x="51" y="150" as="sourcePoint" />
            <mxPoint x="51" y="170" as="targetPoint" />
          </mxGeometry>
        </mxCell>
        <mxCell id="HRCa3_O8-2l-VFVqgWmT-209" value="" style="endArrow=none;html=1;rounded=0;strokeWidth=3;fillColor=#1ba1e2;strokeColor=#007FFF;" parent="HRCa3_O8-2l-VFVqgWmT-243" edge="1">
          <mxGeometry width="50" height="50" relative="1" as="geometry">
            <mxPoint x="91" y="100" as="sourcePoint" />
            <mxPoint x="91" y="150" as="targetPoint" />
          </mxGeometry>
        </mxCell>
        <mxCell id="HRCa3_O8-2l-VFVqgWmT-211" value="" style="endArrow=none;html=1;rounded=0;strokeWidth=3;fillColor=#1ba1e2;strokeColor=#007FFF;" parent="HRCa3_O8-2l-VFVqgWmT-243" edge="1">
          <mxGeometry width="50" height="50" relative="1" as="geometry">
            <mxPoint x="211" y="10" as="sourcePoint" />
            <mxPoint x="211" y="50" as="targetPoint" />
          </mxGeometry>
        </mxCell>
        <mxCell id="HRCa3_O8-2l-VFVqgWmT-212" value="" style="endArrow=none;html=1;rounded=0;strokeWidth=3;fillColor=#1ba1e2;strokeColor=#007FFF;" parent="HRCa3_O8-2l-VFVqgWmT-243" edge="1">
          <mxGeometry width="50" height="50" relative="1" as="geometry">
            <mxPoint x="51" y="10" as="sourcePoint" />
            <mxPoint x="51" y="50" as="targetPoint" />
          </mxGeometry>
        </mxCell>
        <mxCell id="HRCa3_O8-2l-VFVqgWmT-213" value="" style="endArrow=none;html=1;rounded=0;strokeWidth=3;fillColor=#1ba1e2;strokeColor=#007FFF;" parent="HRCa3_O8-2l-VFVqgWmT-243" edge="1">
          <mxGeometry width="50" height="50" relative="1" as="geometry">
            <mxPoint x="131" y="50" as="sourcePoint" />
            <mxPoint x="131" y="100" as="targetPoint" />
          </mxGeometry>
        </mxCell>
        <mxCell id="HRCa3_O8-2l-VFVqgWmT-214" value="" style="verticalLabelPosition=bottom;verticalAlign=top;html=1;shape=mxgraph.basic.x;fillColor=#000000;strokeWidth=0;" parent="HRCa3_O8-2l-VFVqgWmT-243" vertex="1">
          <mxGeometry x="206" y="145" width="10" height="10" as="geometry" />
        </mxCell>
        <mxCell id="HRCa3_O8-2l-VFVqgWmT-215" value="" style="endArrow=none;html=1;rounded=0;fillColor=#fff2cc;strokeColor=#FF0000;jumpSize=6;strokeWidth=3;" parent="HRCa3_O8-2l-VFVqgWmT-243" target="HRCa3_O8-2l-VFVqgWmT-203" edge="1">
          <mxGeometry width="50" height="50" relative="1" as="geometry">
            <mxPoint x="191" y="40" as="sourcePoint" />
            <mxPoint x="191" y="160" as="targetPoint" />
          </mxGeometry>
        </mxCell>
        <mxCell id="HRCa3_O8-2l-VFVqgWmT-203" value="C" style="text;html=1;align=center;verticalAlign=middle;whiteSpace=wrap;rounded=0;" parent="HRCa3_O8-2l-VFVqgWmT-243" vertex="1">
          <mxGeometry x="181" y="20" width="20" height="20" as="geometry" />
        </mxCell>
        <mxCell id="HRCa3_O8-2l-VFVqgWmT-218" value="" style="verticalLabelPosition=bottom;verticalAlign=top;html=1;shape=mxgraph.basic.x;fillColor=#000000;strokeWidth=0;" parent="HRCa3_O8-2l-VFVqgWmT-243" vertex="1">
          <mxGeometry x="166" y="145" width="10" height="10" as="geometry" />
        </mxCell>
        <mxCell id="HRCa3_O8-2l-VFVqgWmT-219" value="" style="verticalLabelPosition=bottom;verticalAlign=top;html=1;shape=mxgraph.basic.x;fillColor=#000000;strokeWidth=0;" parent="HRCa3_O8-2l-VFVqgWmT-243" vertex="1">
          <mxGeometry x="126" y="145" width="10" height="10" as="geometry" />
        </mxCell>
        <mxCell id="HRCa3_O8-2l-VFVqgWmT-220" value="" style="verticalLabelPosition=bottom;verticalAlign=top;html=1;shape=mxgraph.basic.x;fillColor=#000000;strokeWidth=0;" parent="HRCa3_O8-2l-VFVqgWmT-243" vertex="1">
          <mxGeometry x="46" y="145" width="10" height="10" as="geometry" />
        </mxCell>
        <mxCell id="HRCa3_O8-2l-VFVqgWmT-221" value="" style="verticalLabelPosition=bottom;verticalAlign=top;html=1;shape=mxgraph.basic.x;fillColor=#000000;strokeWidth=0;" parent="HRCa3_O8-2l-VFVqgWmT-243" vertex="1">
          <mxGeometry x="86" y="145" width="10" height="10" as="geometry" />
        </mxCell>
        <mxCell id="HRCa3_O8-2l-VFVqgWmT-222" value="" style="verticalLabelPosition=bottom;verticalAlign=top;html=1;shape=mxgraph.basic.x;fillColor=#000000;strokeWidth=0;" parent="HRCa3_O8-2l-VFVqgWmT-243" vertex="1">
          <mxGeometry x="206" y="45" width="10" height="10" as="geometry" />
        </mxCell>
        <mxCell id="HRCa3_O8-2l-VFVqgWmT-223" value="" style="verticalLabelPosition=bottom;verticalAlign=top;html=1;shape=mxgraph.basic.x;fillColor=#000000;strokeWidth=0;" parent="HRCa3_O8-2l-VFVqgWmT-243" vertex="1">
          <mxGeometry x="126" y="45" width="10" height="10" as="geometry" />
        </mxCell>
        <mxCell id="HRCa3_O8-2l-VFVqgWmT-224" value="" style="verticalLabelPosition=bottom;verticalAlign=top;html=1;shape=mxgraph.basic.x;fillColor=#000000;strokeWidth=0;" parent="HRCa3_O8-2l-VFVqgWmT-243" vertex="1">
          <mxGeometry x="46" y="45" width="10" height="10" as="geometry" />
        </mxCell>
        <mxCell id="HRCa3_O8-2l-VFVqgWmT-225" value="" style="endArrow=none;html=1;rounded=0;fillColor=#fff2cc;strokeColor=#FFFF00;jumpSize=6;strokeWidth=3;" parent="HRCa3_O8-2l-VFVqgWmT-243" edge="1">
          <mxGeometry width="50" height="50" relative="1" as="geometry">
            <mxPoint x="252" y="49.860000000000014" as="sourcePoint" />
            <mxPoint x="312" y="50" as="targetPoint" />
          </mxGeometry>
        </mxCell>
        <mxCell id="HRCa3_O8-2l-VFVqgWmT-226" value="" style="endArrow=none;html=1;rounded=0;fillColor=#d5e8d4;strokeColor=#00FF00;jumpSize=6;strokeWidth=3;" parent="HRCa3_O8-2l-VFVqgWmT-243" edge="1">
          <mxGeometry width="50" height="50" relative="1" as="geometry">
            <mxPoint x="252" y="149.86" as="sourcePoint" />
            <mxPoint x="312" y="150" as="targetPoint" />
          </mxGeometry>
        </mxCell>
        <mxCell id="HRCa3_O8-2l-VFVqgWmT-227" value="" style="endArrow=none;html=1;rounded=0;fillColor=#fff2cc;strokeColor=#FF0000;jumpSize=6;strokeWidth=3;" parent="HRCa3_O8-2l-VFVqgWmT-243" edge="1">
          <mxGeometry width="50" height="50" relative="1" as="geometry">
            <mxPoint x="282" y="40" as="sourcePoint" />
            <mxPoint x="282" y="160" as="targetPoint" />
          </mxGeometry>
        </mxCell>
        <mxCell id="HRCa3_O8-2l-VFVqgWmT-210" value="" style="endArrow=none;html=1;rounded=0;strokeColor=#007FFF;strokeWidth=3;" parent="HRCa3_O8-2l-VFVqgWmT-243" edge="1">
          <mxGeometry width="50" height="50" relative="1" as="geometry">
            <mxPoint x="92" y="100" as="sourcePoint" />
            <mxPoint x="281.5" y="99.96" as="targetPoint" />
          </mxGeometry>
        </mxCell>
        <mxCell id="HRCa3_O8-2l-VFVqgWmT-228" value="" style="verticalLabelPosition=bottom;verticalAlign=top;html=1;shape=mxgraph.basic.x;fillColor=#000000;strokeWidth=0;" parent="HRCa3_O8-2l-VFVqgWmT-243" vertex="1">
          <mxGeometry x="277" y="95" width="10" height="10" as="geometry" />
        </mxCell>
        <mxCell id="HRCa3_O8-2l-VFVqgWmT-229" value="$$\bar{Y}$$" style="text;html=1;align=center;verticalAlign=middle;whiteSpace=wrap;rounded=0;" parent="HRCa3_O8-2l-VFVqgWmT-243" vertex="1">
          <mxGeometry x="272" y="20" width="20" height="20" as="geometry" />
        </mxCell>
        <mxCell id="HRCa3_O8-2l-VFVqgWmT-231" value="" style="endArrow=none;html=1;rounded=0;strokeWidth=3;fillColor=#1ba1e2;strokeColor=#007FFF;" parent="HRCa3_O8-2l-VFVqgWmT-243" edge="1">
          <mxGeometry width="50" height="50" relative="1" as="geometry">
            <mxPoint x="302" y="50" as="sourcePoint" />
            <mxPoint x="302" y="150" as="targetPoint" />
          </mxGeometry>
        </mxCell>
        <mxCell id="HRCa3_O8-2l-VFVqgWmT-232" value="" style="endArrow=none;html=1;rounded=0;strokeWidth=3;fillColor=#1ba1e2;strokeColor=#007FFF;" parent="HRCa3_O8-2l-VFVqgWmT-243" edge="1">
          <mxGeometry width="50" height="50" relative="1" as="geometry">
            <mxPoint x="262" y="150" as="sourcePoint" />
            <mxPoint x="262" y="190" as="targetPoint" />
          </mxGeometry>
        </mxCell>
        <mxCell id="HRCa3_O8-2l-VFVqgWmT-233" value="" style="endArrow=none;html=1;rounded=0;strokeWidth=3;fillColor=#1ba1e2;strokeColor=#007FFF;" parent="HRCa3_O8-2l-VFVqgWmT-243" edge="1">
          <mxGeometry width="50" height="50" relative="1" as="geometry">
            <mxPoint x="262" y="10" as="sourcePoint" />
            <mxPoint x="262" y="50" as="targetPoint" />
          </mxGeometry>
        </mxCell>
        <mxCell id="HRCa3_O8-2l-VFVqgWmT-234" value="" style="verticalLabelPosition=bottom;verticalAlign=top;html=1;shape=mxgraph.basic.x;fillColor=#000000;strokeWidth=0;" parent="HRCa3_O8-2l-VFVqgWmT-243" vertex="1">
          <mxGeometry x="257" y="45" width="10" height="10" as="geometry" />
        </mxCell>
        <mxCell id="HRCa3_O8-2l-VFVqgWmT-235" value="" style="verticalLabelPosition=bottom;verticalAlign=top;html=1;shape=mxgraph.basic.x;fillColor=#000000;strokeWidth=0;" parent="HRCa3_O8-2l-VFVqgWmT-243" vertex="1">
          <mxGeometry x="297" y="45" width="10" height="10" as="geometry" />
        </mxCell>
        <mxCell id="HRCa3_O8-2l-VFVqgWmT-236" value="" style="verticalLabelPosition=bottom;verticalAlign=top;html=1;shape=mxgraph.basic.x;fillColor=#000000;strokeWidth=0;" parent="HRCa3_O8-2l-VFVqgWmT-243" vertex="1">
          <mxGeometry x="297" y="144" width="10" height="10" as="geometry" />
        </mxCell>
        <mxCell id="HRCa3_O8-2l-VFVqgWmT-237" value="" style="verticalLabelPosition=bottom;verticalAlign=top;html=1;shape=mxgraph.basic.x;fillColor=#000000;strokeWidth=0;" parent="HRCa3_O8-2l-VFVqgWmT-243" vertex="1">
          <mxGeometry x="257" y="145" width="10" height="10" as="geometry" />
        </mxCell>
        <mxCell id="HRCa3_O8-2l-VFVqgWmT-238" value="GND" style="text;html=1;align=center;verticalAlign=middle;whiteSpace=wrap;rounded=0;rotation=0;" parent="HRCa3_O8-2l-VFVqgWmT-243" vertex="1">
          <mxGeometry y="180" width="30" height="20" as="geometry" />
        </mxCell>
        <mxCell id="HRCa3_O8-2l-VFVqgWmT-239" value="$$V_{DD}$$" style="text;html=1;align=center;verticalAlign=middle;whiteSpace=wrap;rounded=0;rotation=0;" parent="HRCa3_O8-2l-VFVqgWmT-243" vertex="1">
          <mxGeometry width="30" height="20" as="geometry" />
        </mxCell>
        <mxCell id="HRCa3_O8-2l-VFVqgWmT-240" value="Y" style="text;html=1;align=center;verticalAlign=middle;whiteSpace=wrap;rounded=0;rotation=0;" parent="HRCa3_O8-2l-VFVqgWmT-243" vertex="1">
          <mxGeometry x="332" y="90" width="20" height="20" as="geometry" />
        </mxCell>
        <mxCell id="HRCa3_O8-2l-VFVqgWmT-241" value="" style="endArrow=none;html=1;rounded=0;strokeColor=#007FFF;strokeWidth=3;" parent="HRCa3_O8-2l-VFVqgWmT-243" edge="1">
          <mxGeometry width="50" height="50" relative="1" as="geometry">
            <mxPoint x="303" y="100" as="sourcePoint" />
            <mxPoint x="332" y="100" as="targetPoint" />
          </mxGeometry>
        </mxCell>
        <mxCell id="kstpcVmmqeyMHaQPRAP4-15" value="" style="group" vertex="1" connectable="0" parent="HRCa3_O8-2l-VFVqgWmT-243">
          <mxGeometry x="370" y="10" width="20" height="85" as="geometry" />
        </mxCell>
        <mxCell id="kstpcVmmqeyMHaQPRAP4-3" value="" style="endArrow=none;html=1;rounded=0;strokeWidth=3;fillColor=#1ba1e2;strokeColor=#007FFF;" edge="1" parent="kstpcVmmqeyMHaQPRAP4-15">
          <mxGeometry width="50" height="50" relative="1" as="geometry">
            <mxPoint as="sourcePoint" />
            <mxPoint x="20" as="targetPoint" />
          </mxGeometry>
        </mxCell>
        <mxCell id="kstpcVmmqeyMHaQPRAP4-6" value="" style="endArrow=none;html=1;rounded=0;strokeWidth=3;fillColor=#1ba1e2;strokeColor=#FFFF00;" edge="1" parent="kstpcVmmqeyMHaQPRAP4-15">
          <mxGeometry width="50" height="50" relative="1" as="geometry">
            <mxPoint y="60" as="sourcePoint" />
            <mxPoint x="20" y="60" as="targetPoint" />
          </mxGeometry>
        </mxCell>
        <mxCell id="kstpcVmmqeyMHaQPRAP4-7" value="" style="verticalLabelPosition=bottom;verticalAlign=top;html=1;shape=mxgraph.basic.x;fillColor=#000000;strokeWidth=0;" vertex="1" parent="kstpcVmmqeyMHaQPRAP4-15">
          <mxGeometry x="5" y="75" width="10" height="10" as="geometry" />
        </mxCell>
        <mxCell id="kstpcVmmqeyMHaQPRAP4-4" value="" style="endArrow=none;html=1;rounded=0;strokeWidth=3;fillColor=#1ba1e2;strokeColor=#FF0000;" edge="1" parent="1">
          <mxGeometry width="50" height="50" relative="1" as="geometry">
            <mxPoint x="410" y="400" as="sourcePoint" />
            <mxPoint x="430" y="400" as="targetPoint" />
          </mxGeometry>
        </mxCell>
        <mxCell id="kstpcVmmqeyMHaQPRAP4-5" value="" style="endArrow=none;html=1;rounded=0;strokeWidth=3;fillColor=#1ba1e2;strokeColor=#00FF00;" edge="1" parent="1">
          <mxGeometry width="50" height="50" relative="1" as="geometry">
            <mxPoint x="410" y="420" as="sourcePoint" />
            <mxPoint x="430" y="420" as="targetPoint" />
          </mxGeometry>
        </mxCell>
        <mxCell id="kstpcVmmqeyMHaQPRAP4-8" value="metal1" style="text;html=1;align=left;verticalAlign=middle;whiteSpace=wrap;rounded=0;rotation=0;" vertex="1" parent="1">
          <mxGeometry x="440" y="370" width="50" height="20" as="geometry" />
        </mxCell>
        <mxCell id="kstpcVmmqeyMHaQPRAP4-9" value="poly" style="text;html=1;align=left;verticalAlign=middle;whiteSpace=wrap;rounded=0;rotation=0;" vertex="1" parent="1">
          <mxGeometry x="440" y="390" width="50" height="20" as="geometry" />
        </mxCell>
        <mxCell id="kstpcVmmqeyMHaQPRAP4-11" value="ndiff" style="text;html=1;align=left;verticalAlign=middle;whiteSpace=wrap;rounded=0;rotation=0;" vertex="1" parent="1">
          <mxGeometry x="440" y="410" width="50" height="20" as="geometry" />
        </mxCell>
        <mxCell id="kstpcVmmqeyMHaQPRAP4-13" value="pdiff" style="text;html=1;align=left;verticalAlign=middle;whiteSpace=wrap;rounded=0;rotation=0;" vertex="1" parent="1">
          <mxGeometry x="440" y="430" width="50" height="20" as="geometry" />
        </mxCell>
        <mxCell id="kstpcVmmqeyMHaQPRAP4-14" value="contact" style="text;html=1;align=left;verticalAlign=middle;whiteSpace=wrap;rounded=0;rotation=0;" vertex="1" parent="1">
          <mxGeometry x="440" y="450" width="50" height="20" as="geometry" />
        </mxCell>
      </root>
    </mxGraphModel>
  </diagram>
  <diagram id="WtEj8hr7PWSJqiVg4vgk" name="part_b">
    <mxGraphModel dx="982" dy="523" grid="1" gridSize="10" guides="1" tooltips="1" connect="1" arrows="1" fold="1" page="1" pageScale="1" pageWidth="850" pageHeight="1100" math="1" shadow="0">
      <root>
        <mxCell id="0" />
        <mxCell id="1" parent="0" />
        <mxCell id="E6g5IBZFYSU5xKC9_o0G-1" value="" style="group" vertex="1" connectable="0" parent="1">
          <mxGeometry x="42" y="40" width="340" height="300" as="geometry" />
        </mxCell>
        <mxCell id="E6g5IBZFYSU5xKC9_o0G-2" value="" style="group" vertex="1" connectable="0" parent="E6g5IBZFYSU5xKC9_o0G-1">
          <mxGeometry width="320" height="300" as="geometry" />
        </mxCell>
        <mxCell id="E6g5IBZFYSU5xKC9_o0G-3" value="" style="group" vertex="1" connectable="0" parent="E6g5IBZFYSU5xKC9_o0G-2">
          <mxGeometry width="201.35000000000002" height="300" as="geometry" />
        </mxCell>
        <mxCell id="E6g5IBZFYSU5xKC9_o0G-4" value="" style="group" vertex="1" connectable="0" parent="E6g5IBZFYSU5xKC9_o0G-3">
          <mxGeometry x="20" y="20" width="161.3452405076555" height="240" as="geometry" />
        </mxCell>
        <mxCell id="E6g5IBZFYSU5xKC9_o0G-5" value="" style="group" vertex="1" connectable="0" parent="E6g5IBZFYSU5xKC9_o0G-4">
          <mxGeometry y="10" width="50" height="40" as="geometry" />
        </mxCell>
        <mxCell id="E6g5IBZFYSU5xKC9_o0G-6" value="" style="group" vertex="1" connectable="0" parent="E6g5IBZFYSU5xKC9_o0G-5">
          <mxGeometry x="10" width="40" height="40" as="geometry" />
        </mxCell>
        <mxCell id="E6g5IBZFYSU5xKC9_o0G-7" value="" style="endArrow=none;html=1;rounded=0;" edge="1" parent="E6g5IBZFYSU5xKC9_o0G-6">
          <mxGeometry width="50" height="50" relative="1" as="geometry">
            <mxPoint x="20" y="40" as="sourcePoint" />
            <mxPoint x="20" as="targetPoint" />
          </mxGeometry>
        </mxCell>
        <mxCell id="E6g5IBZFYSU5xKC9_o0G-8" value="" style="endArrow=none;html=1;rounded=0;" edge="1" parent="E6g5IBZFYSU5xKC9_o0G-6">
          <mxGeometry width="50" height="50" relative="1" as="geometry">
            <mxPoint x="10" y="40" as="sourcePoint" />
            <mxPoint x="10" as="targetPoint" />
          </mxGeometry>
        </mxCell>
        <mxCell id="E6g5IBZFYSU5xKC9_o0G-9" value="" style="ellipse;whiteSpace=wrap;html=1;aspect=fixed;" vertex="1" parent="E6g5IBZFYSU5xKC9_o0G-6">
          <mxGeometry y="15" width="10" height="10" as="geometry" />
        </mxCell>
        <mxCell id="E6g5IBZFYSU5xKC9_o0G-10" value="" style="endArrow=none;html=1;rounded=0;" edge="1" parent="E6g5IBZFYSU5xKC9_o0G-6">
          <mxGeometry width="50" height="50" relative="1" as="geometry">
            <mxPoint x="40" as="sourcePoint" />
            <mxPoint x="20" as="targetPoint" />
          </mxGeometry>
        </mxCell>
        <mxCell id="E6g5IBZFYSU5xKC9_o0G-11" value="" style="endArrow=none;html=1;rounded=0;" edge="1" parent="E6g5IBZFYSU5xKC9_o0G-6">
          <mxGeometry width="50" height="50" relative="1" as="geometry">
            <mxPoint x="20" y="40" as="sourcePoint" />
            <mxPoint x="40" y="40" as="targetPoint" />
          </mxGeometry>
        </mxCell>
        <mxCell id="E6g5IBZFYSU5xKC9_o0G-12" value="" style="endArrow=none;html=1;rounded=0;" edge="1" parent="E6g5IBZFYSU5xKC9_o0G-5">
          <mxGeometry width="50" height="50" relative="1" as="geometry">
            <mxPoint y="20" as="sourcePoint" />
            <mxPoint x="10" y="19.920000000000016" as="targetPoint" />
          </mxGeometry>
        </mxCell>
        <mxCell id="E6g5IBZFYSU5xKC9_o0G-13" value="" style="group" vertex="1" connectable="0" parent="E6g5IBZFYSU5xKC9_o0G-4">
          <mxGeometry y="120" width="161.3452405076555" height="120" as="geometry" />
        </mxCell>
        <mxCell id="E6g5IBZFYSU5xKC9_o0G-14" value="" style="group" vertex="1" connectable="0" parent="E6g5IBZFYSU5xKC9_o0G-13">
          <mxGeometry y="10" width="50" height="40" as="geometry" />
        </mxCell>
        <mxCell id="E6g5IBZFYSU5xKC9_o0G-15" value="" style="endArrow=none;html=1;rounded=0;" edge="1" parent="E6g5IBZFYSU5xKC9_o0G-14">
          <mxGeometry width="50" height="50" relative="1" as="geometry">
            <mxPoint y="20" as="sourcePoint" />
            <mxPoint x="10" y="20" as="targetPoint" />
            <Array as="points">
              <mxPoint x="20" y="20" />
            </Array>
          </mxGeometry>
        </mxCell>
        <mxCell id="E6g5IBZFYSU5xKC9_o0G-16" value="" style="group" vertex="1" connectable="0" parent="E6g5IBZFYSU5xKC9_o0G-14">
          <mxGeometry x="21" width="29" height="40" as="geometry" />
        </mxCell>
        <mxCell id="E6g5IBZFYSU5xKC9_o0G-17" value="" style="endArrow=none;html=1;rounded=0;" edge="1" parent="E6g5IBZFYSU5xKC9_o0G-16">
          <mxGeometry width="50" height="50" relative="1" as="geometry">
            <mxPoint x="9" as="sourcePoint" />
            <mxPoint x="9" y="40" as="targetPoint" />
          </mxGeometry>
        </mxCell>
        <mxCell id="E6g5IBZFYSU5xKC9_o0G-18" value="" style="endArrow=none;html=1;rounded=0;" edge="1" parent="E6g5IBZFYSU5xKC9_o0G-16">
          <mxGeometry width="50" height="50" relative="1" as="geometry">
            <mxPoint as="sourcePoint" />
            <mxPoint y="40" as="targetPoint" />
          </mxGeometry>
        </mxCell>
        <mxCell id="E6g5IBZFYSU5xKC9_o0G-19" value="" style="endArrow=none;html=1;rounded=0;" edge="1" parent="E6g5IBZFYSU5xKC9_o0G-16">
          <mxGeometry width="50" height="50" relative="1" as="geometry">
            <mxPoint x="9" as="sourcePoint" />
            <mxPoint x="29" as="targetPoint" />
          </mxGeometry>
        </mxCell>
        <mxCell id="E6g5IBZFYSU5xKC9_o0G-20" value="" style="endArrow=none;html=1;rounded=0;" edge="1" parent="E6g5IBZFYSU5xKC9_o0G-16">
          <mxGeometry width="50" height="50" relative="1" as="geometry">
            <mxPoint x="9" y="40" as="sourcePoint" />
            <mxPoint x="29" y="40" as="targetPoint" />
          </mxGeometry>
        </mxCell>
        <mxCell id="E6g5IBZFYSU5xKC9_o0G-21" value="" style="group;rotation=-181;" vertex="1" connectable="0" parent="E6g5IBZFYSU5xKC9_o0G-13">
          <mxGeometry x="111" y="10" width="50" height="40" as="geometry" />
        </mxCell>
        <mxCell id="E6g5IBZFYSU5xKC9_o0G-22" value="" style="endArrow=none;html=1;rounded=0;" edge="1" parent="E6g5IBZFYSU5xKC9_o0G-21">
          <mxGeometry width="50" height="50" relative="1" as="geometry">
            <mxPoint x="50" y="20" as="sourcePoint" />
            <mxPoint x="40" y="20" as="targetPoint" />
            <Array as="points">
              <mxPoint x="30" y="20" />
            </Array>
          </mxGeometry>
        </mxCell>
        <mxCell id="E6g5IBZFYSU5xKC9_o0G-23" value="" style="group;rotation=-181;" vertex="1" connectable="0" parent="E6g5IBZFYSU5xKC9_o0G-21">
          <mxGeometry width="29" height="40" as="geometry" />
        </mxCell>
        <mxCell id="E6g5IBZFYSU5xKC9_o0G-24" value="" style="endArrow=none;html=1;rounded=0;" edge="1" parent="E6g5IBZFYSU5xKC9_o0G-23">
          <mxGeometry width="50" height="50" relative="1" as="geometry">
            <mxPoint x="20" y="40" as="sourcePoint" />
            <mxPoint x="20" as="targetPoint" />
          </mxGeometry>
        </mxCell>
        <mxCell id="E6g5IBZFYSU5xKC9_o0G-25" value="" style="endArrow=none;html=1;rounded=0;" edge="1" parent="E6g5IBZFYSU5xKC9_o0G-23">
          <mxGeometry width="50" height="50" relative="1" as="geometry">
            <mxPoint x="29" y="40" as="sourcePoint" />
            <mxPoint x="29" as="targetPoint" />
          </mxGeometry>
        </mxCell>
        <mxCell id="E6g5IBZFYSU5xKC9_o0G-26" value="" style="endArrow=none;html=1;rounded=0;" edge="1" parent="E6g5IBZFYSU5xKC9_o0G-23">
          <mxGeometry width="50" height="50" relative="1" as="geometry">
            <mxPoint x="20" y="40" as="sourcePoint" />
            <mxPoint y="40" as="targetPoint" />
          </mxGeometry>
        </mxCell>
        <mxCell id="E6g5IBZFYSU5xKC9_o0G-27" value="" style="endArrow=none;html=1;rounded=0;" edge="1" parent="E6g5IBZFYSU5xKC9_o0G-23">
          <mxGeometry width="50" height="50" relative="1" as="geometry">
            <mxPoint x="20" as="sourcePoint" />
            <mxPoint as="targetPoint" />
          </mxGeometry>
        </mxCell>
        <mxCell id="E6g5IBZFYSU5xKC9_o0G-28" value="" style="group" vertex="1" connectable="0" parent="E6g5IBZFYSU5xKC9_o0G-13">
          <mxGeometry y="70" width="50" height="40" as="geometry" />
        </mxCell>
        <mxCell id="E6g5IBZFYSU5xKC9_o0G-29" value="" style="endArrow=none;html=1;rounded=0;" edge="1" parent="E6g5IBZFYSU5xKC9_o0G-28">
          <mxGeometry width="50" height="50" relative="1" as="geometry">
            <mxPoint y="20" as="sourcePoint" />
            <mxPoint x="10" y="20" as="targetPoint" />
            <Array as="points">
              <mxPoint x="20" y="20" />
            </Array>
          </mxGeometry>
        </mxCell>
        <mxCell id="E6g5IBZFYSU5xKC9_o0G-30" value="" style="group" vertex="1" connectable="0" parent="E6g5IBZFYSU5xKC9_o0G-28">
          <mxGeometry x="21" width="29" height="40" as="geometry" />
        </mxCell>
        <mxCell id="E6g5IBZFYSU5xKC9_o0G-31" value="" style="endArrow=none;html=1;rounded=0;" edge="1" parent="E6g5IBZFYSU5xKC9_o0G-30">
          <mxGeometry width="50" height="50" relative="1" as="geometry">
            <mxPoint x="9" as="sourcePoint" />
            <mxPoint x="9" y="40" as="targetPoint" />
          </mxGeometry>
        </mxCell>
        <mxCell id="E6g5IBZFYSU5xKC9_o0G-32" value="" style="endArrow=none;html=1;rounded=0;" edge="1" parent="E6g5IBZFYSU5xKC9_o0G-30">
          <mxGeometry width="50" height="50" relative="1" as="geometry">
            <mxPoint as="sourcePoint" />
            <mxPoint y="40" as="targetPoint" />
          </mxGeometry>
        </mxCell>
        <mxCell id="E6g5IBZFYSU5xKC9_o0G-33" value="" style="endArrow=none;html=1;rounded=0;" edge="1" parent="E6g5IBZFYSU5xKC9_o0G-30">
          <mxGeometry width="50" height="50" relative="1" as="geometry">
            <mxPoint x="9" as="sourcePoint" />
            <mxPoint x="29" as="targetPoint" />
          </mxGeometry>
        </mxCell>
        <mxCell id="E6g5IBZFYSU5xKC9_o0G-34" value="" style="endArrow=none;html=1;rounded=0;" edge="1" parent="E6g5IBZFYSU5xKC9_o0G-30">
          <mxGeometry width="50" height="50" relative="1" as="geometry">
            <mxPoint x="9" y="40" as="sourcePoint" />
            <mxPoint x="29" y="40" as="targetPoint" />
          </mxGeometry>
        </mxCell>
        <mxCell id="E6g5IBZFYSU5xKC9_o0G-35" value="" style="group;rotation=-181;" vertex="1" connectable="0" parent="E6g5IBZFYSU5xKC9_o0G-13">
          <mxGeometry x="111" y="70" width="50" height="40" as="geometry" />
        </mxCell>
        <mxCell id="E6g5IBZFYSU5xKC9_o0G-36" value="" style="endArrow=none;html=1;rounded=0;" edge="1" parent="E6g5IBZFYSU5xKC9_o0G-35">
          <mxGeometry width="50" height="50" relative="1" as="geometry">
            <mxPoint x="50" y="20" as="sourcePoint" />
            <mxPoint x="40" y="20" as="targetPoint" />
            <Array as="points">
              <mxPoint x="30" y="20" />
            </Array>
          </mxGeometry>
        </mxCell>
        <mxCell id="E6g5IBZFYSU5xKC9_o0G-37" value="" style="group;rotation=-181;" vertex="1" connectable="0" parent="E6g5IBZFYSU5xKC9_o0G-35">
          <mxGeometry width="29" height="40" as="geometry" />
        </mxCell>
        <mxCell id="E6g5IBZFYSU5xKC9_o0G-38" value="" style="endArrow=none;html=1;rounded=0;" edge="1" parent="E6g5IBZFYSU5xKC9_o0G-37">
          <mxGeometry width="50" height="50" relative="1" as="geometry">
            <mxPoint x="20" y="40" as="sourcePoint" />
            <mxPoint x="20" as="targetPoint" />
          </mxGeometry>
        </mxCell>
        <mxCell id="E6g5IBZFYSU5xKC9_o0G-39" value="" style="endArrow=none;html=1;rounded=0;" edge="1" parent="E6g5IBZFYSU5xKC9_o0G-37">
          <mxGeometry width="50" height="50" relative="1" as="geometry">
            <mxPoint x="29" y="40" as="sourcePoint" />
            <mxPoint x="29" as="targetPoint" />
          </mxGeometry>
        </mxCell>
        <mxCell id="E6g5IBZFYSU5xKC9_o0G-40" value="" style="endArrow=none;html=1;rounded=0;" edge="1" parent="E6g5IBZFYSU5xKC9_o0G-37">
          <mxGeometry width="50" height="50" relative="1" as="geometry">
            <mxPoint x="20" y="40" as="sourcePoint" />
            <mxPoint y="40" as="targetPoint" />
          </mxGeometry>
        </mxCell>
        <mxCell id="E6g5IBZFYSU5xKC9_o0G-41" value="" style="endArrow=none;html=1;rounded=0;" edge="1" parent="E6g5IBZFYSU5xKC9_o0G-37">
          <mxGeometry width="50" height="50" relative="1" as="geometry">
            <mxPoint x="20" as="sourcePoint" />
            <mxPoint as="targetPoint" />
          </mxGeometry>
        </mxCell>
        <mxCell id="E6g5IBZFYSU5xKC9_o0G-42" value="" style="endArrow=none;html=1;rounded=0;" edge="1" parent="E6g5IBZFYSU5xKC9_o0G-13">
          <mxGeometry width="50" height="50" relative="1" as="geometry">
            <mxPoint x="111" y="50" as="sourcePoint" />
            <mxPoint x="111" y="70" as="targetPoint" />
          </mxGeometry>
        </mxCell>
        <mxCell id="E6g5IBZFYSU5xKC9_o0G-43" value="" style="endArrow=none;html=1;rounded=0;" edge="1" parent="E6g5IBZFYSU5xKC9_o0G-13">
          <mxGeometry width="50" height="50" relative="1" as="geometry">
            <mxPoint x="50" y="50" as="sourcePoint" />
            <mxPoint x="50" y="70" as="targetPoint" />
          </mxGeometry>
        </mxCell>
        <mxCell id="E6g5IBZFYSU5xKC9_o0G-45" value="" style="endArrow=none;html=1;rounded=0;" edge="1" parent="E6g5IBZFYSU5xKC9_o0G-13">
          <mxGeometry width="50" height="50" relative="1" as="geometry">
            <mxPoint x="50" y="120" as="sourcePoint" />
            <mxPoint x="110" y="120" as="targetPoint" />
          </mxGeometry>
        </mxCell>
        <mxCell id="E6g5IBZFYSU5xKC9_o0G-46" value="" style="endArrow=none;html=1;rounded=0;" edge="1" parent="E6g5IBZFYSU5xKC9_o0G-13">
          <mxGeometry width="50" height="50" relative="1" as="geometry">
            <mxPoint x="50" y="120" as="sourcePoint" />
            <mxPoint x="50" y="110" as="targetPoint" />
          </mxGeometry>
        </mxCell>
        <mxCell id="E6g5IBZFYSU5xKC9_o0G-47" value="" style="endArrow=none;html=1;rounded=0;" edge="1" parent="E6g5IBZFYSU5xKC9_o0G-13">
          <mxGeometry width="50" height="50" relative="1" as="geometry">
            <mxPoint x="110" y="120" as="sourcePoint" />
            <mxPoint x="110" y="110" as="targetPoint" />
          </mxGeometry>
        </mxCell>
        <mxCell id="E6g5IBZFYSU5xKC9_o0G-48" value="" style="endArrow=none;html=1;rounded=0;" edge="1" parent="E6g5IBZFYSU5xKC9_o0G-13">
          <mxGeometry width="50" height="50" relative="1" as="geometry">
            <mxPoint x="51" as="sourcePoint" />
            <mxPoint x="178" as="targetPoint" />
          </mxGeometry>
        </mxCell>
        <mxCell id="E6g5IBZFYSU5xKC9_o0G-49" value="" style="endArrow=none;html=1;rounded=0;" edge="1" parent="E6g5IBZFYSU5xKC9_o0G-13">
          <mxGeometry width="50" height="50" relative="1" as="geometry">
            <mxPoint x="50" y="10" as="sourcePoint" />
            <mxPoint x="50" as="targetPoint" />
          </mxGeometry>
        </mxCell>
        <mxCell id="E6g5IBZFYSU5xKC9_o0G-50" value="" style="endArrow=none;html=1;rounded=0;" edge="1" parent="E6g5IBZFYSU5xKC9_o0G-13">
          <mxGeometry width="50" height="50" relative="1" as="geometry">
            <mxPoint x="110" y="10" as="sourcePoint" />
            <mxPoint x="110" as="targetPoint" />
          </mxGeometry>
        </mxCell>
        <mxCell id="E6g5IBZFYSU5xKC9_o0G-51" value="" style="endArrow=none;html=1;rounded=0;" edge="1" parent="E6g5IBZFYSU5xKC9_o0G-13">
          <mxGeometry width="50" height="50" relative="1" as="geometry">
            <mxPoint x="80.47000000000003" y="140" as="sourcePoint" />
            <mxPoint x="80.47000000000003" y="120" as="targetPoint" />
          </mxGeometry>
        </mxCell>
        <mxCell id="E6g5IBZFYSU5xKC9_o0G-52" value="w" style="text;html=1;align=center;verticalAlign=middle;whiteSpace=wrap;rounded=0;rotation=0;fontColor=#CC0000;" vertex="1" parent="E6g5IBZFYSU5xKC9_o0G-13">
          <mxGeometry x="91.00000000000001" y="50" width="20" height="20" as="geometry" />
        </mxCell>
        <mxCell id="E6g5IBZFYSU5xKC9_o0G-86" value="&lt;font style=&quot;&quot;&gt;v&lt;/font&gt;" style="text;html=1;align=center;verticalAlign=middle;whiteSpace=wrap;rounded=0;rotation=0;fontColor=#CC0000;" vertex="1" parent="E6g5IBZFYSU5xKC9_o0G-13">
          <mxGeometry x="50" y="50" width="20" height="20" as="geometry" />
        </mxCell>
        <mxCell id="E6g5IBZFYSU5xKC9_o0G-53" value="" style="group" vertex="1" connectable="0" parent="E6g5IBZFYSU5xKC9_o0G-4">
          <mxGeometry y="70" width="50" height="40" as="geometry" />
        </mxCell>
        <mxCell id="E6g5IBZFYSU5xKC9_o0G-54" value="" style="group" vertex="1" connectable="0" parent="E6g5IBZFYSU5xKC9_o0G-53">
          <mxGeometry x="10" width="40" height="40" as="geometry" />
        </mxCell>
        <mxCell id="E6g5IBZFYSU5xKC9_o0G-55" value="" style="endArrow=none;html=1;rounded=0;" edge="1" parent="E6g5IBZFYSU5xKC9_o0G-54">
          <mxGeometry width="50" height="50" relative="1" as="geometry">
            <mxPoint x="20" y="40" as="sourcePoint" />
            <mxPoint x="20" as="targetPoint" />
          </mxGeometry>
        </mxCell>
        <mxCell id="E6g5IBZFYSU5xKC9_o0G-56" value="" style="endArrow=none;html=1;rounded=0;" edge="1" parent="E6g5IBZFYSU5xKC9_o0G-54">
          <mxGeometry width="50" height="50" relative="1" as="geometry">
            <mxPoint x="10" y="40" as="sourcePoint" />
            <mxPoint x="10" as="targetPoint" />
          </mxGeometry>
        </mxCell>
        <mxCell id="E6g5IBZFYSU5xKC9_o0G-57" value="" style="ellipse;whiteSpace=wrap;html=1;aspect=fixed;" vertex="1" parent="E6g5IBZFYSU5xKC9_o0G-54">
          <mxGeometry y="15" width="10" height="10" as="geometry" />
        </mxCell>
        <mxCell id="E6g5IBZFYSU5xKC9_o0G-58" value="" style="endArrow=none;html=1;rounded=0;" edge="1" parent="E6g5IBZFYSU5xKC9_o0G-54">
          <mxGeometry width="50" height="50" relative="1" as="geometry">
            <mxPoint x="40" as="sourcePoint" />
            <mxPoint x="20" as="targetPoint" />
          </mxGeometry>
        </mxCell>
        <mxCell id="E6g5IBZFYSU5xKC9_o0G-59" value="" style="endArrow=none;html=1;rounded=0;" edge="1" parent="E6g5IBZFYSU5xKC9_o0G-54">
          <mxGeometry width="50" height="50" relative="1" as="geometry">
            <mxPoint x="20" y="40" as="sourcePoint" />
            <mxPoint x="40" y="40" as="targetPoint" />
          </mxGeometry>
        </mxCell>
        <mxCell id="E6g5IBZFYSU5xKC9_o0G-60" value="" style="endArrow=none;html=1;rounded=0;" edge="1" parent="E6g5IBZFYSU5xKC9_o0G-53">
          <mxGeometry width="50" height="50" relative="1" as="geometry">
            <mxPoint y="20" as="sourcePoint" />
            <mxPoint x="10" y="19.920000000000016" as="targetPoint" />
          </mxGeometry>
        </mxCell>
        <mxCell id="E6g5IBZFYSU5xKC9_o0G-61" value="" style="endArrow=none;html=1;rounded=0;" edge="1" parent="E6g5IBZFYSU5xKC9_o0G-4">
          <mxGeometry width="50" height="50" relative="1" as="geometry">
            <mxPoint x="50" y="120" as="sourcePoint" />
            <mxPoint x="50" y="110" as="targetPoint" />
          </mxGeometry>
        </mxCell>
        <mxCell id="E6g5IBZFYSU5xKC9_o0G-62" value="" style="endArrow=none;html=1;rounded=0;" edge="1" parent="E6g5IBZFYSU5xKC9_o0G-4">
          <mxGeometry width="50" height="50" relative="1" as="geometry">
            <mxPoint x="50" y="70" as="sourcePoint" />
            <mxPoint x="50" y="50" as="targetPoint" />
          </mxGeometry>
        </mxCell>
        <mxCell id="E6g5IBZFYSU5xKC9_o0G-63" value="" style="group;rotation=-180;" vertex="1" connectable="0" parent="E6g5IBZFYSU5xKC9_o0G-4">
          <mxGeometry x="110" width="50" height="110" as="geometry" />
        </mxCell>
        <mxCell id="E6g5IBZFYSU5xKC9_o0G-64" value="" style="group;rotation=-180;" vertex="1" connectable="0" parent="E6g5IBZFYSU5xKC9_o0G-63">
          <mxGeometry y="70" width="50" height="40" as="geometry" />
        </mxCell>
        <mxCell id="E6g5IBZFYSU5xKC9_o0G-65" value="" style="group;rotation=-180;" vertex="1" connectable="0" parent="E6g5IBZFYSU5xKC9_o0G-64">
          <mxGeometry width="40" height="40" as="geometry" />
        </mxCell>
        <mxCell id="E6g5IBZFYSU5xKC9_o0G-66" value="" style="endArrow=none;html=1;rounded=0;" edge="1" parent="E6g5IBZFYSU5xKC9_o0G-65">
          <mxGeometry width="50" height="50" relative="1" as="geometry">
            <mxPoint x="20" as="sourcePoint" />
            <mxPoint x="20" y="40" as="targetPoint" />
          </mxGeometry>
        </mxCell>
        <mxCell id="E6g5IBZFYSU5xKC9_o0G-67" value="" style="endArrow=none;html=1;rounded=0;" edge="1" parent="E6g5IBZFYSU5xKC9_o0G-65">
          <mxGeometry width="50" height="50" relative="1" as="geometry">
            <mxPoint x="30" as="sourcePoint" />
            <mxPoint x="30" y="40" as="targetPoint" />
          </mxGeometry>
        </mxCell>
        <mxCell id="E6g5IBZFYSU5xKC9_o0G-68" value="" style="ellipse;whiteSpace=wrap;html=1;aspect=fixed;rotation=-180;" vertex="1" parent="E6g5IBZFYSU5xKC9_o0G-65">
          <mxGeometry x="30" y="15" width="10" height="10" as="geometry" />
        </mxCell>
        <mxCell id="E6g5IBZFYSU5xKC9_o0G-69" value="" style="endArrow=none;html=1;rounded=0;" edge="1" parent="E6g5IBZFYSU5xKC9_o0G-65">
          <mxGeometry width="50" height="50" relative="1" as="geometry">
            <mxPoint y="40" as="sourcePoint" />
            <mxPoint x="20" y="40" as="targetPoint" />
          </mxGeometry>
        </mxCell>
        <mxCell id="E6g5IBZFYSU5xKC9_o0G-70" value="" style="endArrow=none;html=1;rounded=0;" edge="1" parent="E6g5IBZFYSU5xKC9_o0G-65">
          <mxGeometry width="50" height="50" relative="1" as="geometry">
            <mxPoint x="20" as="sourcePoint" />
            <mxPoint as="targetPoint" />
          </mxGeometry>
        </mxCell>
        <mxCell id="E6g5IBZFYSU5xKC9_o0G-71" value="" style="endArrow=none;html=1;rounded=0;" edge="1" parent="E6g5IBZFYSU5xKC9_o0G-64">
          <mxGeometry width="50" height="50" relative="1" as="geometry">
            <mxPoint x="50" y="20" as="sourcePoint" />
            <mxPoint x="40" y="20" as="targetPoint" />
          </mxGeometry>
        </mxCell>
        <mxCell id="E6g5IBZFYSU5xKC9_o0G-72" value="" style="group;rotation=-180;" vertex="1" connectable="0" parent="E6g5IBZFYSU5xKC9_o0G-63">
          <mxGeometry y="10" width="50" height="40" as="geometry" />
        </mxCell>
        <mxCell id="E6g5IBZFYSU5xKC9_o0G-73" value="" style="group;rotation=-180;" vertex="1" connectable="0" parent="E6g5IBZFYSU5xKC9_o0G-72">
          <mxGeometry width="40" height="40" as="geometry" />
        </mxCell>
        <mxCell id="E6g5IBZFYSU5xKC9_o0G-74" value="" style="endArrow=none;html=1;rounded=0;" edge="1" parent="E6g5IBZFYSU5xKC9_o0G-73">
          <mxGeometry width="50" height="50" relative="1" as="geometry">
            <mxPoint x="20" as="sourcePoint" />
            <mxPoint x="20" y="40" as="targetPoint" />
          </mxGeometry>
        </mxCell>
        <mxCell id="E6g5IBZFYSU5xKC9_o0G-75" value="" style="endArrow=none;html=1;rounded=0;" edge="1" parent="E6g5IBZFYSU5xKC9_o0G-73">
          <mxGeometry width="50" height="50" relative="1" as="geometry">
            <mxPoint x="30" as="sourcePoint" />
            <mxPoint x="30" y="40" as="targetPoint" />
          </mxGeometry>
        </mxCell>
        <mxCell id="E6g5IBZFYSU5xKC9_o0G-76" value="" style="ellipse;whiteSpace=wrap;html=1;aspect=fixed;rotation=-180;" vertex="1" parent="E6g5IBZFYSU5xKC9_o0G-73">
          <mxGeometry x="30" y="15" width="10" height="10" as="geometry" />
        </mxCell>
        <mxCell id="E6g5IBZFYSU5xKC9_o0G-77" value="" style="endArrow=none;html=1;rounded=0;" edge="1" parent="E6g5IBZFYSU5xKC9_o0G-73">
          <mxGeometry width="50" height="50" relative="1" as="geometry">
            <mxPoint y="40" as="sourcePoint" />
            <mxPoint x="20" y="40" as="targetPoint" />
          </mxGeometry>
        </mxCell>
        <mxCell id="E6g5IBZFYSU5xKC9_o0G-78" value="" style="endArrow=none;html=1;rounded=0;" edge="1" parent="E6g5IBZFYSU5xKC9_o0G-73">
          <mxGeometry width="50" height="50" relative="1" as="geometry">
            <mxPoint x="20" as="sourcePoint" />
            <mxPoint as="targetPoint" />
          </mxGeometry>
        </mxCell>
        <mxCell id="E6g5IBZFYSU5xKC9_o0G-79" value="" style="endArrow=none;html=1;rounded=0;" edge="1" parent="E6g5IBZFYSU5xKC9_o0G-72">
          <mxGeometry width="50" height="50" relative="1" as="geometry">
            <mxPoint x="50" y="20" as="sourcePoint" />
            <mxPoint x="40" y="20" as="targetPoint" />
          </mxGeometry>
        </mxCell>
        <mxCell id="E6g5IBZFYSU5xKC9_o0G-80" value="" style="endArrow=none;html=1;rounded=0;" edge="1" parent="E6g5IBZFYSU5xKC9_o0G-63">
          <mxGeometry width="50" height="50" relative="1" as="geometry">
            <mxPoint as="sourcePoint" />
            <mxPoint y="10" as="targetPoint" />
          </mxGeometry>
        </mxCell>
        <mxCell id="E6g5IBZFYSU5xKC9_o0G-81" value="" style="endArrow=none;html=1;rounded=0;" edge="1" parent="E6g5IBZFYSU5xKC9_o0G-63">
          <mxGeometry width="50" height="50" relative="1" as="geometry">
            <mxPoint y="50" as="sourcePoint" />
            <mxPoint y="70" as="targetPoint" />
          </mxGeometry>
        </mxCell>
        <mxCell id="E6g5IBZFYSU5xKC9_o0G-82" value="" style="endArrow=none;html=1;rounded=0;" edge="1" parent="E6g5IBZFYSU5xKC9_o0G-4">
          <mxGeometry width="50" height="50" relative="1" as="geometry">
            <mxPoint x="110" y="120" as="sourcePoint" />
            <mxPoint x="110" y="110" as="targetPoint" />
          </mxGeometry>
        </mxCell>
        <mxCell id="E6g5IBZFYSU5xKC9_o0G-83" value="" style="endArrow=none;html=1;rounded=0;" edge="1" parent="E6g5IBZFYSU5xKC9_o0G-4">
          <mxGeometry width="50" height="50" relative="1" as="geometry">
            <mxPoint x="50" y="10" as="sourcePoint" />
            <mxPoint x="50" as="targetPoint" />
          </mxGeometry>
        </mxCell>
        <mxCell id="E6g5IBZFYSU5xKC9_o0G-84" value="" style="endArrow=none;html=1;rounded=0;" edge="1" parent="E6g5IBZFYSU5xKC9_o0G-4">
          <mxGeometry width="50" height="50" relative="1" as="geometry">
            <mxPoint x="50.66999999999996" as="sourcePoint" />
            <mxPoint x="110.66999999999996" as="targetPoint" />
          </mxGeometry>
        </mxCell>
        <mxCell id="E6g5IBZFYSU5xKC9_o0G-85" value="&lt;font style=&quot;&quot;&gt;u&lt;/font&gt;" style="text;html=1;align=center;verticalAlign=middle;whiteSpace=wrap;rounded=0;rotation=0;fontColor=#FF8000;" vertex="1" parent="E6g5IBZFYSU5xKC9_o0G-4">
          <mxGeometry x="70.67" y="40" width="20" height="20" as="geometry" />
        </mxCell>
        <mxCell id="E6g5IBZFYSU5xKC9_o0G-204" value="" style="endArrow=none;html=1;rounded=0;" edge="1" parent="E6g5IBZFYSU5xKC9_o0G-4">
          <mxGeometry width="50" height="50" relative="1" as="geometry">
            <mxPoint x="50" y="60" as="sourcePoint" />
            <mxPoint x="110" y="60" as="targetPoint" />
          </mxGeometry>
        </mxCell>
        <mxCell id="E6g5IBZFYSU5xKC9_o0G-87" value="A" style="text;html=1;align=center;verticalAlign=middle;whiteSpace=wrap;rounded=0;" vertex="1" parent="E6g5IBZFYSU5xKC9_o0G-3">
          <mxGeometry y="160" width="20" height="20" as="geometry" />
        </mxCell>
        <mxCell id="E6g5IBZFYSU5xKC9_o0G-88" value="C" style="text;html=1;align=center;verticalAlign=middle;whiteSpace=wrap;rounded=0;" vertex="1" parent="E6g5IBZFYSU5xKC9_o0G-3">
          <mxGeometry x="181.35000000000002" y="160" width="20" height="20" as="geometry" />
        </mxCell>
        <mxCell id="E6g5IBZFYSU5xKC9_o0G-89" value="B" style="text;html=1;align=center;verticalAlign=middle;whiteSpace=wrap;rounded=0;" vertex="1" parent="E6g5IBZFYSU5xKC9_o0G-3">
          <mxGeometry y="220" width="20" height="20" as="geometry" />
        </mxCell>
        <mxCell id="E6g5IBZFYSU5xKC9_o0G-90" value="D" style="text;html=1;align=center;verticalAlign=middle;whiteSpace=wrap;rounded=0;" vertex="1" parent="E6g5IBZFYSU5xKC9_o0G-3">
          <mxGeometry x="181.35000000000002" y="220" width="20" height="20" as="geometry" />
        </mxCell>
        <mxCell id="E6g5IBZFYSU5xKC9_o0G-91" value="A" style="text;html=1;align=center;verticalAlign=middle;whiteSpace=wrap;rounded=0;" vertex="1" parent="E6g5IBZFYSU5xKC9_o0G-3">
          <mxGeometry y="40" width="20" height="20" as="geometry" />
        </mxCell>
        <mxCell id="E6g5IBZFYSU5xKC9_o0G-92" value="C" style="text;html=1;align=center;verticalAlign=middle;whiteSpace=wrap;rounded=0;" vertex="1" parent="E6g5IBZFYSU5xKC9_o0G-3">
          <mxGeometry y="100" width="20" height="20" as="geometry" />
        </mxCell>
        <mxCell id="E6g5IBZFYSU5xKC9_o0G-93" value="B" style="text;html=1;align=center;verticalAlign=middle;whiteSpace=wrap;rounded=0;" vertex="1" parent="E6g5IBZFYSU5xKC9_o0G-3">
          <mxGeometry x="181.35000000000002" y="40" width="20" height="20" as="geometry" />
        </mxCell>
        <mxCell id="E6g5IBZFYSU5xKC9_o0G-94" value="D" style="text;html=1;align=center;verticalAlign=middle;whiteSpace=wrap;rounded=0;" vertex="1" parent="E6g5IBZFYSU5xKC9_o0G-3">
          <mxGeometry x="181.35000000000002" y="100" width="20" height="20" as="geometry" />
        </mxCell>
        <mxCell id="E6g5IBZFYSU5xKC9_o0G-95" value="" style="endArrow=none;html=1;rounded=0;" edge="1" parent="E6g5IBZFYSU5xKC9_o0G-3">
          <mxGeometry width="50" height="50" relative="1" as="geometry">
            <mxPoint x="80" as="sourcePoint" />
            <mxPoint x="120" as="targetPoint" />
          </mxGeometry>
        </mxCell>
        <mxCell id="E6g5IBZFYSU5xKC9_o0G-96" value="" style="endArrow=none;html=1;rounded=0;" edge="1" parent="E6g5IBZFYSU5xKC9_o0G-3">
          <mxGeometry width="50" height="50" relative="1" as="geometry">
            <mxPoint x="100" y="20" as="sourcePoint" />
            <mxPoint x="100" as="targetPoint" />
          </mxGeometry>
        </mxCell>
        <mxCell id="E6g5IBZFYSU5xKC9_o0G-97" value="" style="triangle;whiteSpace=wrap;html=1;rotation=90;" vertex="1" parent="E6g5IBZFYSU5xKC9_o0G-3">
          <mxGeometry x="90.66999999999996" y="280" width="20" height="20" as="geometry" />
        </mxCell>
        <mxCell id="E6g5IBZFYSU5xKC9_o0G-122" value="Y" style="text;html=1;align=center;verticalAlign=middle;whiteSpace=wrap;rounded=0;" vertex="1" parent="E6g5IBZFYSU5xKC9_o0G-2">
          <mxGeometry x="198" y="130" width="20" height="20" as="geometry" />
        </mxCell>
        <mxCell id="hnnPYpnFI_G1fQSRLSME-3" value="" style="group" vertex="1" connectable="0" parent="1">
          <mxGeometry x="300" y="90" width="205" height="187" as="geometry" />
        </mxCell>
        <mxCell id="E6g5IBZFYSU5xKC9_o0G-142" value="" style="ellipse;whiteSpace=wrap;html=1;aspect=fixed;fillColor=#CC0000;container=0;" vertex="1" parent="hnnPYpnFI_G1fQSRLSME-3">
          <mxGeometry x="90" y="20" width="10" height="10" as="geometry" />
        </mxCell>
        <mxCell id="E6g5IBZFYSU5xKC9_o0G-143" value="" style="ellipse;whiteSpace=wrap;html=1;aspect=fixed;fillColor=#FF8000;container=0;" vertex="1" parent="hnnPYpnFI_G1fQSRLSME-3">
          <mxGeometry x="90" y="87" width="10" height="10" as="geometry" />
        </mxCell>
        <mxCell id="E6g5IBZFYSU5xKC9_o0G-144" value="" style="ellipse;whiteSpace=wrap;html=1;aspect=fixed;fillColor=#CC0000;container=0;" vertex="1" parent="hnnPYpnFI_G1fQSRLSME-3">
          <mxGeometry x="90" y="157" width="10" height="10" as="geometry" />
        </mxCell>
        <mxCell id="E6g5IBZFYSU5xKC9_o0G-146" value="" style="endArrow=none;html=1;rounded=0;entryX=0;entryY=0.5;entryDx=0;entryDy=0;exitX=1;exitY=0.5;exitDx=0;exitDy=0;edgeStyle=orthogonalEdgeStyle;elbow=vertical;curved=1;startArrow=classic;startFill=1;" edge="1" parent="hnnPYpnFI_G1fQSRLSME-3" source="E6g5IBZFYSU5xKC9_o0G-142" target="E6g5IBZFYSU5xKC9_o0G-128">
          <mxGeometry width="50" height="50" relative="1" as="geometry">
            <mxPoint x="-10" y="27" as="sourcePoint" />
            <mxPoint x="40" y="-23" as="targetPoint" />
          </mxGeometry>
        </mxCell>
        <mxCell id="E6g5IBZFYSU5xKC9_o0G-147" value="" style="endArrow=none;html=1;rounded=0;entryX=0;entryY=0.5;entryDx=0;entryDy=0;exitX=0;exitY=0.5;exitDx=0;exitDy=0;edgeStyle=orthogonalEdgeStyle;curved=1;startArrow=classic;startFill=1;" edge="1" parent="hnnPYpnFI_G1fQSRLSME-3" source="E6g5IBZFYSU5xKC9_o0G-126" target="E6g5IBZFYSU5xKC9_o0G-142">
          <mxGeometry width="50" height="50" relative="1" as="geometry">
            <mxPoint x="100" y="97" as="sourcePoint" />
            <mxPoint x="110" y="147" as="targetPoint" />
          </mxGeometry>
        </mxCell>
        <mxCell id="E6g5IBZFYSU5xKC9_o0G-148" value="" style="endArrow=none;html=1;rounded=0;entryX=1;entryY=0.5;entryDx=0;entryDy=0;exitX=0;exitY=0.5;exitDx=0;exitDy=0;edgeStyle=orthogonalEdgeStyle;curved=1;startArrow=classic;startFill=1;" edge="1" parent="hnnPYpnFI_G1fQSRLSME-3" source="E6g5IBZFYSU5xKC9_o0G-144" target="E6g5IBZFYSU5xKC9_o0G-126">
          <mxGeometry width="50" height="50" relative="1" as="geometry">
            <mxPoint x="110" y="102" as="sourcePoint" />
            <mxPoint x="110" y="162" as="targetPoint" />
          </mxGeometry>
        </mxCell>
        <mxCell id="E6g5IBZFYSU5xKC9_o0G-149" value="Y" style="text;html=1;align=center;verticalAlign=middle;whiteSpace=wrap;rounded=0;rotation=0;container=0;" vertex="1" parent="hnnPYpnFI_G1fQSRLSME-3">
          <mxGeometry y="82" width="15" height="20" as="geometry" />
        </mxCell>
        <mxCell id="E6g5IBZFYSU5xKC9_o0G-150" value="$$V_{DD}$$" style="text;html=1;align=center;verticalAlign=middle;whiteSpace=wrap;rounded=0;rotation=0;container=0;" vertex="1" parent="hnnPYpnFI_G1fQSRLSME-3">
          <mxGeometry x="175" y="82" width="30" height="20" as="geometry" />
        </mxCell>
        <mxCell id="E6g5IBZFYSU5xKC9_o0G-151" value="GND" style="text;html=1;align=center;verticalAlign=middle;whiteSpace=wrap;rounded=0;rotation=0;container=0;" vertex="1" parent="hnnPYpnFI_G1fQSRLSME-3">
          <mxGeometry x="80" y="167" width="30" height="20" as="geometry" />
        </mxCell>
        <mxCell id="E6g5IBZFYSU5xKC9_o0G-152" value="Y" style="text;html=1;align=center;verticalAlign=middle;whiteSpace=wrap;rounded=0;rotation=0;container=0;" vertex="1" parent="hnnPYpnFI_G1fQSRLSME-3">
          <mxGeometry x="85" width="20" height="20" as="geometry" />
        </mxCell>
        <mxCell id="E6g5IBZFYSU5xKC9_o0G-153" value="D" style="text;html=1;align=center;verticalAlign=middle;whiteSpace=wrap;rounded=0;rotation=0;container=0;" vertex="1" parent="hnnPYpnFI_G1fQSRLSME-3">
          <mxGeometry x="126" y="137" width="20" height="20" as="geometry" />
        </mxCell>
        <mxCell id="E6g5IBZFYSU5xKC9_o0G-154" value="B" style="text;html=1;align=center;verticalAlign=middle;whiteSpace=wrap;rounded=0;rotation=0;container=0;" vertex="1" parent="hnnPYpnFI_G1fQSRLSME-3">
          <mxGeometry x="45" y="137" width="20" height="20" as="geometry" />
        </mxCell>
        <mxCell id="E6g5IBZFYSU5xKC9_o0G-129" value="" style="endArrow=classic;html=1;rounded=0;exitX=1;exitY=0.5;exitDx=0;exitDy=0;entryX=0.5;entryY=1;entryDx=0;entryDy=0;startArrow=none;startFill=0;endFill=1;edgeStyle=orthogonalEdgeStyle;curved=1;" edge="1" parent="hnnPYpnFI_G1fQSRLSME-3" source="E6g5IBZFYSU5xKC9_o0G-125" target="E6g5IBZFYSU5xKC9_o0G-143">
          <mxGeometry width="50" height="50" relative="1" as="geometry">
            <mxPoint x="-80" y="7" as="sourcePoint" />
            <mxPoint x="-30" y="57" as="targetPoint" />
            <Array as="points">
              <mxPoint x="170" y="117" />
              <mxPoint x="95" y="117" />
            </Array>
          </mxGeometry>
        </mxCell>
        <mxCell id="E6g5IBZFYSU5xKC9_o0G-130" value="" style="endArrow=none;html=1;rounded=1;entryX=0.5;entryY=1;entryDx=0;entryDy=0;exitX=1;exitY=0.5;exitDx=0;exitDy=0;startArrow=classic;startFill=1;endFill=1;edgeStyle=orthogonalEdgeStyle;curved=1;" edge="1" parent="hnnPYpnFI_G1fQSRLSME-3" source="E6g5IBZFYSU5xKC9_o0G-127" target="E6g5IBZFYSU5xKC9_o0G-143">
          <mxGeometry width="50" height="50" relative="1" as="geometry">
            <mxPoint x="89" y="138" as="sourcePoint" />
            <mxPoint x="-30" y="217" as="targetPoint" />
            <Array as="points">
              <mxPoint x="20" y="117" />
              <mxPoint x="95" y="117" />
            </Array>
          </mxGeometry>
        </mxCell>
        <mxCell id="E6g5IBZFYSU5xKC9_o0G-131" value="" style="endArrow=classic;html=1;rounded=0;entryX=0.5;entryY=0;entryDx=0;entryDy=0;exitX=0;exitY=0.5;exitDx=0;exitDy=0;startFill=0;startArrow=none;endFill=1;edgeStyle=orthogonalEdgeStyle;curved=1;" edge="1" parent="hnnPYpnFI_G1fQSRLSME-3" source="E6g5IBZFYSU5xKC9_o0G-127" target="E6g5IBZFYSU5xKC9_o0G-143">
          <mxGeometry width="50" height="50" relative="1" as="geometry">
            <mxPoint x="81" y="138" as="sourcePoint" />
            <mxPoint x="39" y="106" as="targetPoint" />
            <Array as="points">
              <mxPoint x="20" y="67" />
              <mxPoint x="95" y="67" />
            </Array>
          </mxGeometry>
        </mxCell>
        <mxCell id="E6g5IBZFYSU5xKC9_o0G-125" value="" style="ellipse;whiteSpace=wrap;html=1;aspect=fixed;rotation=90;fillColor=#FF8000;container=0;" vertex="1" parent="hnnPYpnFI_G1fQSRLSME-3">
          <mxGeometry x="165" y="87" width="10" height="10" as="geometry" />
        </mxCell>
        <mxCell id="E6g5IBZFYSU5xKC9_o0G-126" value="" style="ellipse;whiteSpace=wrap;html=1;aspect=fixed;rotation=90;fillColor=#CC0000;container=0;" vertex="1" parent="hnnPYpnFI_G1fQSRLSME-3">
          <mxGeometry x="55" y="87" width="10" height="10" as="geometry" />
        </mxCell>
        <mxCell id="E6g5IBZFYSU5xKC9_o0G-127" value="" style="ellipse;whiteSpace=wrap;html=1;aspect=fixed;rotation=90;fillColor=#FF8000;container=0;" vertex="1" parent="hnnPYpnFI_G1fQSRLSME-3">
          <mxGeometry x="15" y="87" width="10" height="10" as="geometry" />
        </mxCell>
        <mxCell id="E6g5IBZFYSU5xKC9_o0G-128" value="" style="ellipse;whiteSpace=wrap;html=1;aspect=fixed;rotation=90;fillColor=#CC0000;container=0;" vertex="1" parent="hnnPYpnFI_G1fQSRLSME-3">
          <mxGeometry x="126" y="87" width="10" height="10" as="geometry" />
        </mxCell>
        <mxCell id="E6g5IBZFYSU5xKC9_o0G-132" value="" style="endArrow=none;html=1;rounded=0;entryX=0.5;entryY=0;entryDx=0;entryDy=0;exitX=0;exitY=0.5;exitDx=0;exitDy=0;startArrow=classic;startFill=1;edgeStyle=orthogonalEdgeStyle;curved=1;" edge="1" parent="hnnPYpnFI_G1fQSRLSME-3" source="E6g5IBZFYSU5xKC9_o0G-125" target="E6g5IBZFYSU5xKC9_o0G-143">
          <mxGeometry width="50" height="50" relative="1" as="geometry">
            <mxPoint x="164.99" y="80.4999999999946" as="sourcePoint" />
            <mxPoint x="98.5255339059297" y="81.96446609407036" as="targetPoint" />
            <Array as="points">
              <mxPoint x="170" y="67" />
              <mxPoint x="95" y="67" />
            </Array>
          </mxGeometry>
        </mxCell>
        <mxCell id="E6g5IBZFYSU5xKC9_o0G-133" value="v" style="text;html=1;align=center;verticalAlign=middle;whiteSpace=wrap;rounded=0;rotation=0;fontColor=#CC0000;container=0;" vertex="1" parent="hnnPYpnFI_G1fQSRLSME-3">
          <mxGeometry x="35" y="82" width="20" height="20" as="geometry" />
        </mxCell>
        <mxCell id="E6g5IBZFYSU5xKC9_o0G-134" value="&lt;font style=&quot;&quot;&gt;w&lt;/font&gt;" style="text;html=1;align=center;verticalAlign=middle;whiteSpace=wrap;rounded=0;rotation=0;fontColor=#CC0000;container=0;" vertex="1" parent="hnnPYpnFI_G1fQSRLSME-3">
          <mxGeometry x="136" y="82" width="20" height="20" as="geometry" />
        </mxCell>
        <mxCell id="E6g5IBZFYSU5xKC9_o0G-135" value="A" style="text;html=1;align=center;verticalAlign=middle;whiteSpace=wrap;rounded=0;rotation=0;container=0;" vertex="1" parent="hnnPYpnFI_G1fQSRLSME-3">
          <mxGeometry x="145" y="47" width="20" height="20" as="geometry" />
        </mxCell>
        <mxCell id="E6g5IBZFYSU5xKC9_o0G-136" value="B" style="text;html=1;align=center;verticalAlign=middle;whiteSpace=wrap;rounded=0;rotation=0;container=0;" vertex="1" parent="hnnPYpnFI_G1fQSRLSME-3">
          <mxGeometry x="145" y="117" width="20" height="20" as="geometry" />
        </mxCell>
        <mxCell id="E6g5IBZFYSU5xKC9_o0G-140" value="A" style="text;html=1;align=center;verticalAlign=middle;whiteSpace=wrap;rounded=0;rotation=0;container=0;" vertex="1" parent="hnnPYpnFI_G1fQSRLSME-3">
          <mxGeometry x="45" y="15" width="20" height="20" as="geometry" />
        </mxCell>
        <mxCell id="E6g5IBZFYSU5xKC9_o0G-141" value="C" style="text;html=1;align=center;verticalAlign=middle;whiteSpace=wrap;rounded=0;rotation=0;container=0;" vertex="1" parent="hnnPYpnFI_G1fQSRLSME-3">
          <mxGeometry x="125" y="15" width="20" height="20" as="geometry" />
        </mxCell>
        <mxCell id="E6g5IBZFYSU5xKC9_o0G-137" value="D" style="text;html=1;align=center;verticalAlign=middle;whiteSpace=wrap;rounded=0;rotation=0;container=0;" vertex="1" parent="hnnPYpnFI_G1fQSRLSME-3">
          <mxGeometry x="25" y="117" width="20" height="20" as="geometry" />
        </mxCell>
        <mxCell id="E6g5IBZFYSU5xKC9_o0G-138" value="C" style="text;html=1;align=center;verticalAlign=middle;whiteSpace=wrap;rounded=0;rotation=0;container=0;" vertex="1" parent="hnnPYpnFI_G1fQSRLSME-3">
          <mxGeometry x="25" y="47" width="20" height="20" as="geometry" />
        </mxCell>
        <mxCell id="E6g5IBZFYSU5xKC9_o0G-139" value="u" style="text;html=1;align=center;verticalAlign=middle;whiteSpace=wrap;rounded=0;rotation=0;fontColor=#FF8000;container=0;" vertex="1" parent="hnnPYpnFI_G1fQSRLSME-3">
          <mxGeometry x="85" y="52" width="20" height="20" as="geometry" />
        </mxCell>
        <mxCell id="hnnPYpnFI_G1fQSRLSME-1" value="" style="endArrow=none;html=1;rounded=0;exitX=1;exitY=0.5;exitDx=0;exitDy=0;entryX=1;entryY=0.5;entryDx=0;entryDy=0;edgeStyle=orthogonalEdgeStyle;curved=1;startArrow=classic;startFill=1;" edge="1" parent="hnnPYpnFI_G1fQSRLSME-3" source="E6g5IBZFYSU5xKC9_o0G-128" target="E6g5IBZFYSU5xKC9_o0G-144">
          <mxGeometry width="50" height="50" relative="1" as="geometry">
            <mxPoint x="110" y="22" as="sourcePoint" />
            <mxPoint x="125" y="147" as="targetPoint" />
          </mxGeometry>
        </mxCell>
        <mxCell id="hnnPYpnFI_G1fQSRLSME-15" value="" style="group" vertex="1" connectable="0" parent="1">
          <mxGeometry x="40" y="370" width="250" height="200" as="geometry" />
        </mxCell>
        <mxCell id="E6g5IBZFYSU5xKC9_o0G-159" value="" style="endArrow=none;html=1;rounded=0;fillColor=#fff2cc;strokeColor=#FFFF00;jumpSize=6;strokeWidth=3;" edge="1" parent="hnnPYpnFI_G1fQSRLSME-15">
          <mxGeometry width="50" height="50" relative="1" as="geometry">
            <mxPoint x="31" y="50" as="sourcePoint" />
            <mxPoint x="231" y="50" as="targetPoint" />
          </mxGeometry>
        </mxCell>
        <mxCell id="hnnPYpnFI_G1fQSRLSME-7" value="" style="endArrow=none;html=1;rounded=0;strokeWidth=3;fillColor=#1ba1e2;strokeColor=#007FFF;" edge="1" parent="hnnPYpnFI_G1fQSRLSME-15">
          <mxGeometry width="50" height="50" relative="1" as="geometry">
            <mxPoint x="130" y="30" as="sourcePoint" />
            <mxPoint x="130.8" y="70" as="targetPoint" />
          </mxGeometry>
        </mxCell>
        <mxCell id="E6g5IBZFYSU5xKC9_o0G-156" value="" style="endArrow=none;html=1;rounded=0;fillColor=#d5e8d4;strokeColor=#00FF00;jumpSize=6;strokeWidth=3;" edge="1" parent="hnnPYpnFI_G1fQSRLSME-15">
          <mxGeometry width="50" height="50" relative="1" as="geometry">
            <mxPoint x="31" y="150" as="sourcePoint" />
            <mxPoint x="231" y="150" as="targetPoint" />
          </mxGeometry>
        </mxCell>
        <mxCell id="E6g5IBZFYSU5xKC9_o0G-157" value="" style="endArrow=none;html=1;rounded=0;fillColor=#dae8fc;strokeColor=#007FFF;jumpSize=6;strokeWidth=3;" edge="1" parent="hnnPYpnFI_G1fQSRLSME-15">
          <mxGeometry width="50" height="50" relative="1" as="geometry">
            <mxPoint x="31" y="10" as="sourcePoint" />
            <mxPoint x="230" y="10" as="targetPoint" />
          </mxGeometry>
        </mxCell>
        <mxCell id="E6g5IBZFYSU5xKC9_o0G-158" value="" style="endArrow=none;html=1;rounded=0;fillColor=#0050ef;strokeColor=#007FFF;jumpSize=6;strokeWidth=3;" edge="1" parent="hnnPYpnFI_G1fQSRLSME-15">
          <mxGeometry width="50" height="50" relative="1" as="geometry">
            <mxPoint x="31" y="190" as="sourcePoint" />
            <mxPoint x="230" y="190" as="targetPoint" />
          </mxGeometry>
        </mxCell>
        <mxCell id="E6g5IBZFYSU5xKC9_o0G-160" value="" style="endArrow=none;html=1;rounded=0;fillColor=#fff2cc;strokeColor=#FF0000;jumpSize=6;strokeWidth=3;" edge="1" parent="hnnPYpnFI_G1fQSRLSME-15">
          <mxGeometry width="50" height="50" relative="1" as="geometry">
            <mxPoint x="71" y="40" as="sourcePoint" />
            <mxPoint x="71" y="160" as="targetPoint" />
          </mxGeometry>
        </mxCell>
        <mxCell id="E6g5IBZFYSU5xKC9_o0G-161" value="" style="endArrow=none;html=1;rounded=0;fillColor=#fff2cc;strokeColor=#FF0000;jumpSize=6;strokeWidth=3;" edge="1" parent="hnnPYpnFI_G1fQSRLSME-15">
          <mxGeometry width="50" height="50" relative="1" as="geometry">
            <mxPoint x="111" y="40" as="sourcePoint" />
            <mxPoint x="111" y="160" as="targetPoint" />
          </mxGeometry>
        </mxCell>
        <mxCell id="E6g5IBZFYSU5xKC9_o0G-162" value="" style="endArrow=none;html=1;rounded=0;fillColor=#fff2cc;strokeColor=#FF0000;jumpSize=6;strokeWidth=3;" edge="1" parent="hnnPYpnFI_G1fQSRLSME-15">
          <mxGeometry width="50" height="50" relative="1" as="geometry">
            <mxPoint x="151" y="40" as="sourcePoint" />
            <mxPoint x="151" y="160" as="targetPoint" />
          </mxGeometry>
        </mxCell>
        <mxCell id="E6g5IBZFYSU5xKC9_o0G-163" value="" style="endArrow=none;html=1;rounded=0;fillColor=#fff2cc;strokeColor=#FF0000;jumpSize=6;strokeWidth=3;" edge="1" parent="hnnPYpnFI_G1fQSRLSME-15" source="E6g5IBZFYSU5xKC9_o0G-179">
          <mxGeometry width="50" height="50" relative="1" as="geometry">
            <mxPoint x="191" y="40" as="sourcePoint" />
            <mxPoint x="191" y="160" as="targetPoint" />
          </mxGeometry>
        </mxCell>
        <mxCell id="E6g5IBZFYSU5xKC9_o0G-164" value="" style="endArrow=none;html=1;rounded=0;strokeWidth=3;fillColor=#1ba1e2;strokeColor=#007FFF;" edge="1" parent="hnnPYpnFI_G1fQSRLSME-15">
          <mxGeometry width="50" height="50" relative="1" as="geometry">
            <mxPoint x="130.71" y="151" as="sourcePoint" />
            <mxPoint x="130.71" y="191" as="targetPoint" />
          </mxGeometry>
        </mxCell>
        <mxCell id="E6g5IBZFYSU5xKC9_o0G-165" value="A" style="text;html=1;align=center;verticalAlign=middle;whiteSpace=wrap;rounded=0;" vertex="1" parent="hnnPYpnFI_G1fQSRLSME-15">
          <mxGeometry x="61" y="160" width="20" height="20" as="geometry" />
        </mxCell>
        <mxCell id="E6g5IBZFYSU5xKC9_o0G-166" value="B" style="text;html=1;align=center;verticalAlign=middle;whiteSpace=wrap;rounded=0;" vertex="1" parent="hnnPYpnFI_G1fQSRLSME-15">
          <mxGeometry x="101" y="160" width="20" height="20" as="geometry" />
        </mxCell>
        <mxCell id="E6g5IBZFYSU5xKC9_o0G-167" value="D" style="text;html=1;align=center;verticalAlign=middle;whiteSpace=wrap;rounded=0;" vertex="1" parent="hnnPYpnFI_G1fQSRLSME-15">
          <mxGeometry x="141" y="160" width="20" height="20" as="geometry" />
        </mxCell>
        <mxCell id="E6g5IBZFYSU5xKC9_o0G-168" value="" style="endArrow=none;html=1;rounded=0;strokeWidth=3;fillColor=#1ba1e2;strokeColor=#007FFF;" edge="1" parent="hnnPYpnFI_G1fQSRLSME-15">
          <mxGeometry width="50" height="50" relative="1" as="geometry">
            <mxPoint x="210" y="100" as="sourcePoint" />
            <mxPoint x="210" y="150" as="targetPoint" />
          </mxGeometry>
        </mxCell>
        <mxCell id="E6g5IBZFYSU5xKC9_o0G-172" value="" style="endArrow=none;html=1;rounded=0;strokeWidth=3;fillColor=#1ba1e2;strokeColor=#007FFF;exitX=0.4;exitY=0.5;exitDx=0;exitDy=0;exitPerimeter=0;" edge="1" parent="hnnPYpnFI_G1fQSRLSME-15">
          <mxGeometry width="50" height="50" relative="1" as="geometry">
            <mxPoint x="50" y="150" as="sourcePoint" />
            <mxPoint x="50" y="100" as="targetPoint" />
          </mxGeometry>
        </mxCell>
        <mxCell id="E6g5IBZFYSU5xKC9_o0G-174" value="" style="endArrow=none;html=1;rounded=0;strokeWidth=3;fillColor=#1ba1e2;strokeColor=#007FFF;" edge="1" parent="hnnPYpnFI_G1fQSRLSME-15">
          <mxGeometry width="50" height="50" relative="1" as="geometry">
            <mxPoint x="211" y="30" as="sourcePoint" />
            <mxPoint x="211" y="50" as="targetPoint" />
          </mxGeometry>
        </mxCell>
        <mxCell id="E6g5IBZFYSU5xKC9_o0G-175" value="" style="endArrow=none;html=1;rounded=0;strokeWidth=3;fillColor=#1ba1e2;strokeColor=#007FFF;" edge="1" parent="hnnPYpnFI_G1fQSRLSME-15">
          <mxGeometry width="50" height="50" relative="1" as="geometry">
            <mxPoint x="90" y="10" as="sourcePoint" />
            <mxPoint x="90" y="50" as="targetPoint" />
          </mxGeometry>
        </mxCell>
        <mxCell id="E6g5IBZFYSU5xKC9_o0G-176" value="" style="endArrow=none;html=1;rounded=0;strokeWidth=3;fillColor=#1ba1e2;strokeColor=#007FFF;" edge="1" parent="hnnPYpnFI_G1fQSRLSME-15">
          <mxGeometry width="50" height="50" relative="1" as="geometry">
            <mxPoint x="51" y="50" as="sourcePoint" />
            <mxPoint x="51" y="70" as="targetPoint" />
          </mxGeometry>
        </mxCell>
        <mxCell id="E6g5IBZFYSU5xKC9_o0G-178" value="" style="endArrow=none;html=1;rounded=0;fillColor=#fff2cc;strokeColor=#FF0000;jumpSize=6;strokeWidth=3;" edge="1" parent="hnnPYpnFI_G1fQSRLSME-15">
          <mxGeometry width="50" height="50" relative="1" as="geometry">
            <mxPoint x="191" y="40" as="sourcePoint" />
            <mxPoint x="191" y="40" as="targetPoint" />
          </mxGeometry>
        </mxCell>
        <mxCell id="E6g5IBZFYSU5xKC9_o0G-181" value="" style="verticalLabelPosition=bottom;verticalAlign=top;html=1;shape=mxgraph.basic.x;fillColor=#000000;strokeWidth=0;" vertex="1" parent="hnnPYpnFI_G1fQSRLSME-15">
          <mxGeometry x="126" y="145" width="10" height="10" as="geometry" />
        </mxCell>
        <mxCell id="E6g5IBZFYSU5xKC9_o0G-184" value="" style="verticalLabelPosition=bottom;verticalAlign=top;html=1;shape=mxgraph.basic.x;fillColor=#000000;strokeWidth=0;" vertex="1" parent="hnnPYpnFI_G1fQSRLSME-15">
          <mxGeometry x="206" y="45" width="10" height="10" as="geometry" />
        </mxCell>
        <mxCell id="E6g5IBZFYSU5xKC9_o0G-186" value="" style="verticalLabelPosition=bottom;verticalAlign=top;html=1;shape=mxgraph.basic.x;fillColor=#000000;strokeWidth=0;" vertex="1" parent="hnnPYpnFI_G1fQSRLSME-15">
          <mxGeometry x="46" y="45" width="10" height="10" as="geometry" />
        </mxCell>
        <mxCell id="E6g5IBZFYSU5xKC9_o0G-190" value="" style="endArrow=none;html=1;rounded=0;strokeColor=#007FFF;strokeWidth=3;" edge="1" parent="hnnPYpnFI_G1fQSRLSME-15">
          <mxGeometry width="50" height="50" relative="1" as="geometry">
            <mxPoint x="50" y="100" as="sourcePoint" />
            <mxPoint x="230" y="100" as="targetPoint" />
          </mxGeometry>
        </mxCell>
        <mxCell id="E6g5IBZFYSU5xKC9_o0G-185" value="" style="verticalLabelPosition=bottom;verticalAlign=top;html=1;shape=mxgraph.basic.x;fillColor=#000000;strokeWidth=0;" vertex="1" parent="hnnPYpnFI_G1fQSRLSME-15">
          <mxGeometry x="126" y="45" width="10" height="10" as="geometry" />
        </mxCell>
        <mxCell id="E6g5IBZFYSU5xKC9_o0G-200" value="GND" style="text;html=1;align=center;verticalAlign=middle;whiteSpace=wrap;rounded=0;rotation=0;" vertex="1" parent="hnnPYpnFI_G1fQSRLSME-15">
          <mxGeometry y="180" width="30" height="20" as="geometry" />
        </mxCell>
        <mxCell id="E6g5IBZFYSU5xKC9_o0G-201" value="$$V_{DD}$$" style="text;html=1;align=center;verticalAlign=middle;whiteSpace=wrap;rounded=0;rotation=0;" vertex="1" parent="hnnPYpnFI_G1fQSRLSME-15">
          <mxGeometry width="30" height="20" as="geometry" />
        </mxCell>
        <mxCell id="E6g5IBZFYSU5xKC9_o0G-202" value="Y" style="text;html=1;align=center;verticalAlign=middle;whiteSpace=wrap;rounded=0;rotation=0;" vertex="1" parent="hnnPYpnFI_G1fQSRLSME-15">
          <mxGeometry x="230" y="90" width="20" height="20" as="geometry" />
        </mxCell>
        <mxCell id="hnnPYpnFI_G1fQSRLSME-5" value="" style="verticalLabelPosition=bottom;verticalAlign=top;html=1;shape=mxgraph.basic.x;fillColor=#000000;strokeWidth=0;" vertex="1" parent="hnnPYpnFI_G1fQSRLSME-15">
          <mxGeometry x="45" y="146" width="10" height="10" as="geometry" />
        </mxCell>
        <mxCell id="hnnPYpnFI_G1fQSRLSME-6" value="" style="verticalLabelPosition=bottom;verticalAlign=top;html=1;shape=mxgraph.basic.x;fillColor=#000000;strokeWidth=0;" vertex="1" parent="hnnPYpnFI_G1fQSRLSME-15">
          <mxGeometry x="205" y="145" width="10" height="10" as="geometry" />
        </mxCell>
        <mxCell id="hnnPYpnFI_G1fQSRLSME-8" value="" style="endArrow=none;html=1;rounded=0;strokeColor=#007FFF;strokeWidth=3;" edge="1" parent="hnnPYpnFI_G1fQSRLSME-15">
          <mxGeometry width="50" height="50" relative="1" as="geometry">
            <mxPoint x="50" y="70" as="sourcePoint" />
            <mxPoint x="131" y="70" as="targetPoint" />
          </mxGeometry>
        </mxCell>
        <mxCell id="hnnPYpnFI_G1fQSRLSME-10" value="" style="endArrow=none;html=1;rounded=0;strokeColor=#007FFF;strokeWidth=3;" edge="1" parent="hnnPYpnFI_G1fQSRLSME-15">
          <mxGeometry width="50" height="50" relative="1" as="geometry">
            <mxPoint x="131.5" y="29.860000000000014" as="sourcePoint" />
            <mxPoint x="212.5" y="29.860000000000014" as="targetPoint" />
          </mxGeometry>
        </mxCell>
        <mxCell id="hnnPYpnFI_G1fQSRLSME-11" value="" style="endArrow=none;html=1;rounded=0;fillColor=#fff2cc;strokeColor=#FF0000;jumpSize=6;strokeWidth=3;" edge="1" parent="hnnPYpnFI_G1fQSRLSME-15" target="E6g5IBZFYSU5xKC9_o0G-179">
          <mxGeometry width="50" height="50" relative="1" as="geometry">
            <mxPoint x="191" y="40" as="sourcePoint" />
            <mxPoint x="191" y="160" as="targetPoint" />
          </mxGeometry>
        </mxCell>
        <mxCell id="E6g5IBZFYSU5xKC9_o0G-179" value="C" style="text;html=1;align=center;verticalAlign=middle;whiteSpace=wrap;rounded=0;" vertex="1" parent="hnnPYpnFI_G1fQSRLSME-15">
          <mxGeometry x="180" y="160" width="20" height="20" as="geometry" />
        </mxCell>
        <mxCell id="hnnPYpnFI_G1fQSRLSME-12" value="" style="verticalLabelPosition=bottom;verticalAlign=top;html=1;shape=mxgraph.basic.x;fillColor=#000000;strokeWidth=0;" vertex="1" parent="hnnPYpnFI_G1fQSRLSME-15">
          <mxGeometry x="85" y="45" width="10" height="10" as="geometry" />
        </mxCell>
        <mxCell id="hnnPYpnFI_G1fQSRLSME-13" value="" style="endArrow=none;html=1;rounded=0;strokeWidth=3;fillColor=#1ba1e2;strokeColor=#007FFF;" edge="1" parent="hnnPYpnFI_G1fQSRLSME-15">
          <mxGeometry width="50" height="50" relative="1" as="geometry">
            <mxPoint x="169.93" y="50" as="sourcePoint" />
            <mxPoint x="169.93" y="100" as="targetPoint" />
          </mxGeometry>
        </mxCell>
        <mxCell id="hnnPYpnFI_G1fQSRLSME-14" value="" style="verticalLabelPosition=bottom;verticalAlign=top;html=1;shape=mxgraph.basic.x;fillColor=#000000;strokeWidth=0;" vertex="1" parent="hnnPYpnFI_G1fQSRLSME-15">
          <mxGeometry x="165" y="46" width="10" height="10" as="geometry" />
        </mxCell>
      </root>
    </mxGraphModel>
  </diagram>
</mxfile>
